<?xml version="1.0" encoding="UTF-8" standalone="no"?>
<!-- Generator: Adobe Illustrator 21.1.0, SVG Export Plug-In . SVG Version: 6.00 Build 0)  -->

<svg
   xmlns:dc="http://purl.org/dc/elements/1.1/"
   xmlns:cc="http://creativecommons.org/ns#"
   xmlns:rdf="http://www.w3.org/1999/02/22-rdf-syntax-ns#"
   xmlns:svg="http://www.w3.org/2000/svg"
   xmlns="http://www.w3.org/2000/svg"
   xmlns:sodipodi="http://sodipodi.sourceforge.net/DTD/sodipodi-0.dtd"
   xmlns:inkscape="http://www.inkscape.org/namespaces/inkscape"
   version="1.1"
   id="Layer_1"
   inkscape:version="0.92.3 (2405546, 2018-03-11)"
   sodipodi:docname="logo.svg"
   x="0px"
   y="0px"
   viewBox="0 0 812.73535 361.63556"
   xml:space="preserve"
   width="812.73535"
   height="361.63556"><metadata
   id="metadata92"><rdf:RDF><cc:Work
       rdf:about=""><dc:format>image/svg+xml</dc:format><dc:type
         rdf:resource="http://purl.org/dc/dcmitype/StillImage" /><dc:title></dc:title></cc:Work></rdf:RDF></metadata><defs
   id="defs90" />
<style
   type="text/css"
   id="style2">
	.st0{fill:#282828;stroke:#353635;stroke-width:0.2039;}
	.st1{fill:#E4DBDB;}
	.st2{enable-background:new    ;}
	.st3{fill:#F16377;}
</style>
<g
   id="layer1"
   transform="translate(-4710.5644,-1395.8225)"
   inkscape:groupmode="layer"
   inkscape:label="fondo">
	
</g>
<sodipodi:namedview
   bordercolor="#666666"
   borderopacity="1"
   fit-margin-bottom="0"
   fit-margin-left="0"
   fit-margin-right="0"
   fit-margin-top="0"
   gridtolerance="10"
   guidetolerance="10"
   id="namedview35"
   inkscape:current-layer="g5686_1_"
   inkscape:cx="123.4918"
   inkscape:cy="64.337167"
   inkscape:pagecheckerboard="false"
   inkscape:pageopacity="0"
   inkscape:pageshadow="2"
   inkscape:window-height="1020"
   inkscape:window-maximized="1"
   inkscape:window-width="1920"
   inkscape:window-x="0"
   inkscape:window-y="28"
   inkscape:zoom="0.708"
   objecttolerance="10"
   pagecolor="#ffffff"
   showgrid="false">
	</sodipodi:namedview>
<g
   id="g116"
   transform="matrix(0.54343303,0,0,0.54343303,-2374.3112,-585.42682)">
	<g
   id="g4752_1_"
   transform="matrix(0.27776309,0,0,0.27776309,3719.9905,1000.9457)">
		<g
   id="g4823_1_"
   transform="translate(0,30)">
			<path
   id="path57_1_"
   inkscape:connector-curvature="0"
   class="st1"
   d="m 4920.1,577.3 c -26.7,-24.5 -37.5,-66.3 -23.1,-99.5 10.8,-25.2 38.2,-43.3 65.6,-44 -7.9,3.6 -13,11.5 -13,20.2 0,12.3 10.1,22.4 22.4,22.4 23.8,0 24.5,-31 11.5,-44 -7.9,-7.9 -20.2,-12.3 -31.7,-13 -21.6,-2.9 -45.4,2.9 -63.5,14.4 -1.4,0.7 -2.9,1.4 -4.3,2.9 -34.6,25.2 -38.2,67.8 -31,106.7 -25.2,-64.2 -93,-119 -160.8,-132 -41.1,-7.9 -93,7.9 -107.5,51.2 -5,15.1 -3.6,32.5 5,45.4 8.7,13 25.2,21.6 40.4,19.5 15.9,-2.2 28.8,-16.6 28.8,-32.5 0,-15.9 -14.4,-30.3 -30.3,-28.8 -2.2,-15.1 13,-27.4 27.4,-28.8 16.6,-1.4 38.9,5.8 51.9,15.9 31,22.4 45.4,60.6 63.5,93 38.2,67.8 110.3,103.1 187.5,83.7 10.8,-2.9 21.6,-6.5 32.5,-10.8 8.7,-3.6 20.2,-12.3 29.6,-14.4 -35.2,5.7 -74.2,-3 -100.9,-27.5"
   style="fill:#e4dbdb" />
			<path
   id="path61_1_"
   inkscape:connector-curvature="0"
   class="st1"
   d="m 4935.3,562.2 c -18.8,-23.8 -25.2,-57 -17.3,-86.5 -2.2,10.8 5.8,20.9 14.4,27.4 8.7,6.5 19.5,10.8 26.7,19.5 8.7,10.1 11.5,24.5 17.3,37.5 4.3,9.4 10.8,17.3 18.8,23.8 6.5,5.8 19.5,13 27.4,15.9 -7.9,2.2 -34.6,-3.6 -43.3,-6.5 -17.3,-5.9 -32.5,-16.7 -44,-31.1"
   style="fill:#e4dbdb" />
			<path
   id="path65_1_"
   inkscape:connector-curvature="0"
   class="st1"
   d="m 5035.5,244.8 c -4.3,18 -46.2,45.4 -46.2,103.1 0,57.7 46.2,81.5 46.2,81.5 0,0 46.2,-23.8 46.2,-81.5 0,-58.4 -41.8,-85 -46.2,-103.1"
   style="fill:#e4dbdb" />
			<path
   id="path69_1_"
   inkscape:connector-curvature="0"
   class="st1"
   d="m 4892,306.1 c 6.5,10.1 0,41.8 26,67.8 26,26 58.4,16.6 58.4,16.6 0,0 10.1,-31.7 -16.6,-58.4 -26.7,-26.7 -57.7,-19.5 -67.8,-26"
   style="fill:#e4dbdb" />
			<path
   id="path73_1_"
   inkscape:connector-curvature="0"
   class="st1"
   d="m 5181.2,306.1 c -6.5,10.1 0,41.8 -26,67.8 -26,26 -58.4,16.6 -58.4,16.6 0,0 -10.1,-31.7 16.6,-58.4 26.7,-26.7 57.7,-19.5 67.8,-26"
   style="fill:#e4dbdb" />
			<path
   id="path77_1_"
   inkscape:connector-curvature="0"
   class="st1"
   d="m 4733.3,527.5 c 0,-0.7 -0.7,-1.4 -0.7,-1.4 -6.5,-16.6 -13.7,-31 -24.5,-46.2 11.5,20.2 14.4,46.2 9.4,68.5 -5,23.1 -20.2,50.5 -42.6,62 -24.5,13 -59.1,10.1 -85.1,2.2 -33.2,-10.1 -62.7,-28.8 -91.6,-47.6 -30.3,-19.5 -59.9,-38.9 -90.1,-59.1 -25.2,-16.6 -49.8,-32.5 -77.9,-44 -27.4,-11.5 -58.4,-17.3 -87.3,-11.5 -44,8.7 -77.9,43.3 -88.7,86.5 -10.1,41.8 1.4,103.9 48.3,118.3 33.2,10.8 68.5,-15.9 70,-49.8 0,-0.7 0,-1.4 0,-2.2 0,-30.3 -24.5,-54.8 -54.8,-54.8 -13.7,0 -26.7,5 -36.1,13.7 3.6,-28.1 19.5,-54.1 45.4,-65.6 31,-13.7 68.5,-2.9 98.1,13.7 39.7,21.6 73.6,51.2 108.2,79.3 34.6,28.1 71.4,55.5 113.2,72.1 41.8,15.9 90.1,19.5 130.5,0.7 52,-25.1 77.3,-80.7 56.3,-134.8"
   style="fill:#e4dbdb" />
			<path
   id="path81_1_"
   inkscape:connector-curvature="0"
   class="st1"
   d="m 5137.9,577.3 c 26.7,-24.5 37.5,-66.3 23.1,-99.5 -10.8,-25.2 -38.2,-43.3 -65.6,-44 7.9,3.6 13,11.5 13,20.2 0,12.3 -10.1,22.4 -22.4,22.4 -23.8,0 -24.5,-31 -11.5,-44 7.9,-7.9 20.2,-12.3 31.7,-13 21.6,-2.9 45.4,2.9 63.5,14.4 1.4,0.7 2.9,1.4 4.3,2.9 34.6,25.2 38.2,67.8 31,106.7 25.2,-64.2 93,-119 160.8,-132 41.1,-7.9 93,7.9 107.5,51.2 5,15.1 3.6,32.5 -5,45.4 -8.7,13 -25.2,21.6 -40.4,19.5 -15.9,-2.2 -28.8,-16.6 -28.8,-32.5 0,-15.9 14.4,-30.3 30.3,-28.8 2.2,-15.1 -13,-27.4 -27.4,-28.8 -16.6,-1.4 -38.9,5.8 -51.9,15.9 -31,22.4 -45.4,60.6 -63.5,93 -38.2,67.8 -110.3,103.1 -187.5,83.7 -10.8,-2.9 -21.6,-6.5 -32.5,-10.8 -8.7,-3.6 -20.2,-12.3 -29.6,-14.4 35.3,5.7 74.3,-3 100.9,-27.5"
   style="fill:#e4dbdb" />
			<path
   id="path85_1_"
   inkscape:connector-curvature="0"
   class="st1"
   d="m 5122.8,562.2 c 18.8,-23.8 25.2,-57 17.3,-86.5 2.2,10.8 -5.8,20.9 -14.4,27.4 -8.7,6.5 -19.5,10.8 -26.7,19.5 -8.7,10.1 -11.5,24.5 -17.3,37.5 -4.3,9.4 -10.8,17.3 -18.8,23.8 -6.5,5.8 -19.5,13 -27.4,15.9 7.9,2.2 34.6,-3.6 43.3,-6.5 17.3,-5.9 32.5,-16.7 44,-31.1"
   style="fill:#e4dbdb" />
			<path
   id="path89_1_"
   inkscape:connector-curvature="0"
   class="st1"
   d="m 5324.7,527.5 c 0,-0.7 0.7,-1.4 0.7,-1.4 6.5,-16.6 13.7,-31 24.5,-46.2 -11.5,20.2 -14.4,46.2 -9.4,68.5 5,23.1 20.2,50.5 42.6,62 24.5,13 59.1,10.1 85.1,2.2 33.2,-10.1 62.7,-28.8 91.6,-47.6 30.3,-19.5 59.9,-38.9 90.1,-59.1 25.2,-16.6 49.8,-32.5 77.9,-44 27.4,-11.5 58.4,-17.3 87.3,-11.5 44,8.7 77.9,43.3 88.7,86.5 10.1,41.8 -1.4,103.9 -48.3,118.3 -33.2,10.8 -68.5,-15.9 -70,-49.8 0,-0.7 0,-1.4 0,-2.2 0,-30.3 24.5,-54.8 54.8,-54.8 13.7,0 26.7,5 36.1,13.7 -3.6,-28.1 -19.5,-54.1 -45.4,-65.6 -31,-13.7 -68.5,-2.9 -98.1,13.7 -39.7,21.6 -73.6,51.2 -108.2,79.3 -34.6,28.1 -71.4,55.5 -113.2,72.1 -41.8,15.9 -90.1,19.5 -130.5,0.7 -51.9,-25.1 -77.2,-80.7 -56.3,-134.8"
   style="fill:#e4dbdb" />
		</g>
		<g
   id="g4834_1_"
   transform="translate(0,-30)">
			<path
   id="path93_1_"
   inkscape:connector-curvature="0"
   class="st1"
   d="m 5137.9,2368.2 c 26.7,24.5 37.5,66.4 23.1,99.5 -10.8,25.2 -38.2,43.3 -65.6,44 7.9,-3.6 13,-11.5 13,-20.2 0,-12.3 -10.1,-22.4 -22.4,-22.4 -23.8,0 -24.5,31 -11.5,44 7.9,7.9 20.2,12.3 31.7,13 21.6,2.9 45.4,-2.9 63.5,-14.4 1.4,-0.7 2.9,-1.4 4.3,-2.9 34.6,-25.2 38.2,-67.8 31,-106.7 25.2,64.2 93,119 160.8,132 41.1,7.9 93,-7.9 107.5,-51.2 5,-15.1 3.6,-32.5 -5,-45.4 -8.6,-12.9 -25.2,-21.6 -40.4,-19.5 -15.9,2.2 -28.8,16.6 -28.8,32.5 0,15.9 14.4,30.3 30.3,28.8 2.2,15.1 -13,27.4 -27.4,28.8 -16.6,1.4 -38.9,-5.8 -51.9,-15.9 -31,-22.4 -45.4,-60.6 -63.5,-93 -38.2,-67.8 -110.3,-103.1 -187.5,-83.7 -10.8,2.9 -21.6,6.5 -32.5,10.8 -8.7,3.6 -20.2,12.3 -29.6,14.4 35.3,-5.7 74.3,2.9 100.9,27.5"
   style="fill:#e4dbdb" />
			<path
   id="path97_1_"
   inkscape:connector-curvature="0"
   class="st1"
   d="m 5122.8,2383.3 c 18.8,23.8 25.2,57 17.3,86.5 2.2,-10.8 -5.8,-20.9 -14.4,-27.4 -8.6,-6.5 -19.5,-10.8 -26.7,-19.5 -8.7,-10.1 -11.5,-24.5 -17.3,-37.5 -4.3,-9.4 -10.8,-17.3 -18.8,-23.8 -6.5,-5.8 -19.5,-13 -27.4,-15.9 7.9,-2.2 34.6,3.6 43.3,6.5 17.3,5.9 32.5,16.7 44,31.1"
   style="fill:#e4dbdb" />
			<path
   id="path101_1_"
   inkscape:connector-curvature="0"
   class="st1"
   d="m 5022.5,2700.6 c 4.3,-18 46.2,-45.4 46.2,-103.1 0,-57.7 -46.2,-81.5 -46.2,-81.5 0,0 -46.2,23.8 -46.2,81.5 0.1,58.4 41.9,85.1 46.2,103.1"
   style="fill:#e4dbdb" />
			<path
   id="path105_1_"
   inkscape:connector-curvature="0"
   class="st1"
   d="m 5166.1,2639.3 c -6.5,-10.1 0,-41.8 -26,-67.8 -26,-26 -58.4,-16.6 -58.4,-16.6 0,0 -10.1,31.7 16.6,58.4 26.7,26.8 57.7,19.5 67.8,26"
   style="fill:#e4dbdb" />
			<path
   id="path109_1_"
   inkscape:connector-curvature="0"
   class="st1"
   d="m 4876.9,2639.3 c 6.5,-10.1 0,-41.8 26,-67.8 26,-26 58.4,-16.6 58.4,-16.6 0,0 10.1,31.7 -16.6,58.4 -26.7,26.8 -57.7,19.5 -67.8,26"
   style="fill:#e4dbdb" />
			<path
   id="path113_1_"
   inkscape:connector-curvature="0"
   class="st1"
   d="m 5324.7,2417.9 c 0,0.7 0.7,1.4 0.7,1.4 6.5,16.6 13.7,31 24.5,46.2 -11.5,-20.2 -14.4,-46.2 -9.4,-68.5 5,-23.1 20.2,-50.5 42.6,-62 24.5,-13 59.1,-10.1 85.1,-2.2 33.2,10.1 62.7,28.8 91.6,47.6 30.3,19.5 59.9,38.9 90.1,59.1 25.2,16.6 49.8,32.5 77.9,44 27.4,11.5 58.4,17.3 87.3,11.5 44,-8.7 77.9,-43.3 88.7,-86.5 10.1,-41.8 -1.4,-103.9 -48.3,-118.3 -33.2,-10.8 -68.5,15.9 -70,49.8 0,0.7 0,1.4 0,2.2 0,30.3 24.5,54.8 54.8,54.8 13.7,0 26.7,-5 36.1,-13.7 -3.6,28.1 -19.5,54.1 -45.4,65.6 -31,13.7 -68.5,2.9 -98.1,-13.7 -39.7,-21.6 -73.6,-51.2 -108.2,-79.3 -34.6,-28.1 -71.4,-55.5 -113.2,-72.1 -41.8,-15.9 -90.1,-19.5 -130.5,-0.7 -51.9,25.2 -77.2,80.7 -56.3,134.8"
   style="fill:#e4dbdb" />
			<path
   id="path117_1_"
   inkscape:connector-curvature="0"
   class="st1"
   d="m 4920.1,2368.2 c -26.7,24.5 -37.5,66.4 -23.1,99.5 10.8,25.2 38.2,43.3 65.6,44 -7.9,-3.6 -13,-11.5 -13,-20.2 0,-12.3 10.1,-22.4 22.4,-22.4 23.8,0 24.5,31 11.5,44 -7.9,7.9 -20.2,12.3 -31.7,13 -21.6,2.9 -45.4,-2.9 -63.5,-14.4 -1.4,-0.7 -2.9,-1.4 -4.3,-2.9 -34.6,-25.2 -38.2,-67.8 -31,-106.7 -25.2,64.2 -93,119 -160.8,132 -41.1,7.9 -93,-7.9 -107.5,-51.2 -5,-15.1 -3.6,-32.5 5,-45.4 8.7,-13 25.2,-21.6 40.4,-19.5 15.9,2.2 28.8,16.6 28.8,32.5 0,15.9 -14.4,30.3 -30.3,28.8 -2.2,15.1 13,27.4 27.4,28.8 16.6,1.4 38.9,-5.8 51.9,-15.9 31,-22.4 45.4,-60.6 63.5,-93 38.2,-67.8 110.3,-103.1 187.5,-83.7 10.8,2.9 21.6,6.5 32.5,10.8 8.7,3.6 20.2,12.3 29.6,14.4 -35.2,-5.7 -74.2,2.9 -100.9,27.5"
   style="fill:#e4dbdb" />
			<path
   id="path121_1_"
   inkscape:connector-curvature="0"
   class="st1"
   d="m 4935.3,2383.3 c -18.8,23.8 -25.2,57 -17.3,86.5 -2.2,-10.8 5.8,-20.9 14.4,-27.4 8.7,-6.5 19.5,-10.8 26.7,-19.5 8.7,-10.1 11.5,-24.5 17.3,-37.5 4.3,-9.4 10.8,-17.3 18.8,-23.8 6.5,-5.8 19.5,-13 27.4,-15.9 -7.9,-2.2 -34.6,3.6 -43.3,6.5 -17.3,5.9 -32.5,16.7 -44,31.1"
   style="fill:#e4dbdb" />
			<path
   id="path125_1_"
   inkscape:connector-curvature="0"
   class="st1"
   d="m 4733.3,2417.9 c 0,0.7 -0.7,1.4 -0.7,1.4 -6.5,16.6 -13.7,31 -24.5,46.2 11.5,-20.2 14.4,-46.2 9.4,-68.5 -5,-23.1 -20.2,-50.5 -42.6,-62 -24.5,-13 -59.1,-10.1 -85.1,-2.2 -33.2,10.1 -62.7,28.8 -91.6,47.6 -30.3,19.5 -59.9,38.9 -90.1,59.1 -25.2,16.6 -49.8,32.5 -77.9,44 -27.4,11.5 -58.4,17.3 -87.3,11.5 -44,-8.7 -77.9,-43.3 -88.7,-86.5 -10.1,-41.8 1.4,-103.9 48.3,-118.3 33.2,-10.8 68.5,15.9 70,49.8 0,0.7 0,1.4 0,2.2 0,30.3 -24.5,54.8 -54.8,54.8 -13.7,0 -26.7,-5 -36.1,-13.7 3.6,28.1 19.5,54.1 45.4,65.6 31,13.7 68.5,2.9 98.1,-13.7 39.7,-21.6 73.6,-51.2 108.2,-79.3 34.6,-28.1 71.4,-55.5 113.2,-72.1 41.8,-15.9 90.1,-19.5 130.5,-0.7 52,25.2 77.3,80.7 56.3,134.8"
   style="fill:#e4dbdb" />
		</g>
		<g
   id="g4783_1_"
   transform="translate(-68.0959)">
			<path
   id="path513_1_"
   inkscape:connector-curvature="0"
   class="st1"
   d="m 2922.8,1086.2 c -14.4,13.7 -31,24.5 -41.8,41.8 -19.5,33.2 -6.5,75.7 12.3,108.9 15.1,27.4 46.2,62.7 41.1,95.2 -4.3,29.6 -31,57 -58.4,67.8 21.6,-21.6 32.5,-54.1 26,-83.7 -7.2,-29.6 -33.9,-54.1 -64.2,-56.3 -30.3,-1.4 -61.3,22.4 -63.5,52.6 -2.9,30.3 26,60.6 56.3,56.3 -12.3,-4.3 -20.9,-17.3 -20.9,-30.3 0.7,-13 10.1,-25.2 23.1,-28.1 17.3,-4.3 36.1,9.4 40.4,26.7 4.3,17.3 -5,36.1 -19.5,46.2 -14.5,10.1 -33.9,12.3 -51.2,8.7 -31,-6.5 -57,-32.5 -64.9,-63.5 -7.2,-31 4.3,-65.6 28.8,-85.8 24.5,-20.2 61.3,-24.5 90.1,-10.8 -13.7,-18 -26,-36.8 -32.5,-57.7 -6.5,-20.9 -7.2,-45.4 3.6,-64.9 13,-25.2 40.4,-38.9 63.5,-55.5 23.1,-16.6 44,-44 35.3,-71.4 12.2,38.9 29.5,70.6 -3.6,103.8"
   style="fill:#e4dbdb" />
			<path
   id="path517_1_"
   inkscape:connector-curvature="0"
   class="st1"
   d="m 2988.4,1034.2 c 58.4,-66.3 151.5,-99.5 238.7,-84.4 34.6,5.8 68.5,19.5 92.3,44.7 23.8,26 33.9,64.9 18.8,96.6 -13.7,28.8 -45.4,45.4 -77.2,48.3 -33.2,2.9 -68.5,-8.7 -88.7,-35.3 -20.2,-26.7 -19.5,-68.5 5,-90.9 24.5,-22.4 71.4,-14.4 82.9,16.6 5.8,15.1 2.2,34.6 -11.5,44 -13,9.4 -34.6,5.8 -41.8,-8.7 -7.9,30.3 23.1,61.3 54.1,57.7 31,-3.6 54.1,-34.6 53.4,-65.6 -0.7,-31 -21.6,-59.1 -48.3,-74.3 -26.7,-15.1 -59.1,-18.8 -90.1,-16.6 -101,7.2 -168.8,75 -213.5,162.3 -25.2,50.5 -30.3,101 -20.2,154.3 -41.2,-81.3 -11.6,-183 46.1,-248.7"
   style="fill:#e4dbdb" />
			<path
   id="path521_1_"
   inkscape:connector-curvature="0"
   class="st1"
   d="m 3012.9,989.5 c 32.5,-9.4 64.2,-31 86.5,-57 15.9,-18 28.8,-38.2 39.7,-59.1 12.3,-24.5 20.2,-51.9 19.5,-79.3 -0.7,-27.4 -10.8,-55.5 -30.3,-74.3 -20.2,-18.8 -50.5,-26.7 -76.4,-17.3 -28.1,10.8 -45.4,42.6 -39.7,72.1 2.9,15.9 13,30.3 27.4,37.5 14.4,7.2 33.2,5 44.7,-5.8 7.9,-7.2 11.5,-19.5 7.9,-29.6 -3.6,-10.1 -13.7,-18 -24.5,-16.6 -10.8,1.4 -18.8,13 -15.9,23.8 -13.7,-7.2 -18.8,-26 -13,-40.4 6.5,-14.4 21.6,-23.1 36.8,-24.5 32.5,-2.2 60.6,28.1 66.3,59.9 5.8,32.5 -6.5,64.9 -20.9,93.8 -25.9,49 -61.2,90.2 -108.1,116.8"
   style="fill:#e4dbdb" />
			<path
   id="path525_1_"
   inkscape:connector-curvature="0"
   class="st1"
   d="m 3009.3,1149.6 c 10.8,-31.7 30.3,-59.9 54.8,-82.9 12.3,-11.5 26,-20.9 40.4,-29.6 11.5,-6.5 29.6,-20.2 41.8,-21.6 -70.7,8.7 -130.5,55.5 -157.9,121.2 -15.1,37.5 -18.8,82.9 4.3,115.4 23.8,33.2 70.7,44.7 109.6,31.7 28.8,-9.4 54.1,-31.7 60.6,-61.3 6.5,-29.6 -12.3,-63.5 -41.8,-70 -12.3,-2.2 -26.7,0.7 -34.6,10.1 -10.8,13 -5,35.3 9.4,43.3 14.4,8.7 34.6,2.9 44.7,-10.8 2.2,31.7 -19.5,63.5 -49.8,72.1 -30.3,8.7 -65.6,-5.8 -81.5,-33.2 -13,-24.5 -9.4,-56.2 0,-84.4"
   style="fill:#e4dbdb" />
			<path
   id="path529_1_"
   inkscape:connector-curvature="0"
   class="st1"
   d="m 2922.8,1859.3 c -14.4,-13.7 -31,-24.5 -41.8,-41.8 -19.5,-33.2 -6.5,-75.7 12.3,-108.9 15.1,-27.4 46.2,-62.7 41.1,-95.2 -4.3,-29.6 -31,-57 -58.4,-67.8 21.6,21.6 32.5,54.1 26,83.7 -7.2,29.6 -33.9,54.1 -64.2,56.3 -30.3,1.4 -61.3,-22.4 -63.5,-52.6 -2.9,-30.3 26,-60.6 56.3,-56.3 -12.3,4.3 -20.9,17.3 -20.9,30.3 0.7,13 10.1,25.2 23.1,28.1 17.3,4.3 36.1,-9.4 40.4,-26.7 4.3,-17.3 -5,-36.1 -19.5,-46.2 -14.5,-10.1 -33.9,-12.3 -51.2,-8.7 -31,6.5 -57,32.5 -64.9,63.5 -7.2,31 4.3,65.6 28.8,85.8 24.5,20.2 61.3,24.5 90.1,10.8 -13.7,18 -26,36.8 -32.5,57.7 -6.5,20.9 -7.2,45.4 3.6,64.9 13,25.2 40.4,38.9 63.5,55.5 23.1,16.6 44,44 35.3,71.4 12.2,-38.9 29.5,-70.6 -3.6,-103.8"
   style="fill:#e4dbdb" />
			<path
   id="path533_1_"
   inkscape:connector-curvature="0"
   class="st1"
   d="m 2988.4,1911.2 c 58.4,66.3 151.5,99.5 238.7,84.4 34.6,-5.8 68.5,-19.5 92.3,-44.7 23.8,-26 33.9,-64.9 18.8,-96.6 -13.7,-28.8 -45.4,-45.4 -77.2,-48.3 -33.2,-2.9 -68.5,8.7 -88.7,35.3 -20.2,26.7 -19.5,68.5 5,90.9 24.5,22.4 71.4,14.4 82.9,-16.6 5.8,-15.1 2.2,-34.6 -11.5,-44 -13,-9.4 -34.6,-5.8 -41.8,8.7 -7.9,-30.3 23.1,-61.3 54.1,-57.7 31,3.6 54.1,34.6 53.4,65.6 -0.7,31 -21.6,59.1 -48.3,74.3 -26.7,15.1 -59.1,18.8 -90.1,16.6 -101,-7.2 -168.8,-75 -213.5,-162.3 -25.2,-50.5 -30.3,-101 -20.2,-154.3 -41.2,81.4 -11.6,183.1 46.1,248.7"
   style="fill:#e4dbdb" />
			<path
   id="path537_1_"
   inkscape:connector-curvature="0"
   class="st1"
   d="m 3012.9,1955.9 c 32.5,9.4 64.2,31 86.5,57 15.9,18 28.8,38.2 39.7,59.1 12.3,24.5 20.2,51.9 19.5,79.3 -0.7,27.4 -10.8,55.5 -30.3,74.3 -20.2,18.8 -50.5,26.7 -76.4,17.3 -28.1,-10.8 -45.4,-42.6 -39.7,-72.1 2.9,-15.9 13,-30.3 27.4,-37.5 14.4,-7.2 33.2,-5 44.7,5.8 7.9,7.2 11.5,19.5 7.9,29.6 -3.6,10.1 -13.7,18 -24.5,16.6 -10.8,-1.4 -18.8,-13 -15.9,-23.8 -13.7,7.2 -18.8,26 -13,40.4 6.5,14.4 21.6,23.1 36.8,24.5 32.5,2.2 60.6,-28.1 66.3,-59.9 5.8,-32.5 -6.5,-64.9 -20.9,-93.8 -25.9,-49 -61.2,-90.1 -108.1,-116.8"
   style="fill:#e4dbdb" />
			<path
   id="path541_1_"
   inkscape:connector-curvature="0"
   class="st1"
   d="m 3009.3,1795.8 c 10.8,31.7 30.3,59.9 54.8,82.9 12.3,11.5 26,20.9 40.4,29.6 11.5,6.5 29.6,20.2 41.8,21.6 -70.7,-8.7 -130.5,-55.5 -157.9,-121.2 -15.1,-37.5 -18.8,-82.9 4.3,-115.4 23.8,-33.2 70.7,-44.7 109.6,-31.7 28.8,9.4 54.1,31.7 60.6,61.3 6.5,29.6 -12.3,63.5 -41.8,70 -12.3,2.2 -26.7,-0.7 -34.6,-10.1 -10.8,-13 -5,-35.3 9.4,-43.3 14.4,-8.7 34.6,-2.9 44.7,10.8 2.2,-31.7 -19.5,-63.5 -49.8,-72.1 -30.3,-8.7 -65.6,5.8 -81.5,33.2 -13,24.6 -9.4,56.3 0,84.4"
   style="fill:#e4dbdb" />
			<path
   id="path545_1_"
   inkscape:connector-curvature="0"
   class="st1"
   d="m 2525.4,1435.2 c -41.1,35.3 -120.4,35.3 -120.4,35.3 0,0 79.3,0 120.4,35.3 41.1,35.3 103.9,50.5 136.3,29.6 32.5,-20.9 64.2,-13.7 64.2,-13.7 -80.8,-28.8 -137,-34.6 -137,-51.2 0,-16.6 60.6,-24.5 137,-51.2 0,0 -31.7,7.2 -64.2,-13.7 -32.5,-20.1 -95.9,-5.7 -136.3,29.6"
   style="fill:#e4dbdb" />
			<path
   id="path549_1_"
   inkscape:connector-curvature="0"
   class="st1"
   d="m 3038.9,1491.5 c 23.8,-20.9 70,-20.9 70,-20.9 0,0 -46.2,0 -70,-20.9 -23.8,-20.9 -59.9,-28.8 -78.6,-17.3 -18.8,12.3 -36.8,7.9 -36.8,7.9 46.9,16.6 79.3,20.2 79.3,29.6 0,9.4 -35.3,14.4 -79.3,29.6 0,0 18,-4.3 36.8,7.9 18.7,13.7 54.8,5 78.6,-15.9"
   style="fill:#e4dbdb" />
			<path
   id="path553_1_"
   inkscape:connector-curvature="0"
   class="st1"
   d="m 2820.3,1444.6 67.1,26.7 -67.1,26.7 -67.1,-26.7 44,-17.3 z"
   style="fill:#e4dbdb" />
		</g>
		<g
   id="g4812_1_"
   transform="translate(68.095928)">
			<path
   id="path557_1_"
   inkscape:connector-curvature="0"
   class="st1"
   d="m 7135.3,1086.2 c 14.4,13.7 31,24.5 41.8,41.8 19.5,33.2 6.5,75.7 -12.3,108.9 -15.1,27.4 -46.2,62.7 -41.1,95.2 4.3,29.6 31,57 58.4,67.8 -21.6,-21.6 -32.5,-54.1 -26,-83.7 7.2,-29.6 33.9,-54.1 64.2,-56.3 30.3,-1.4 61.3,22.4 63.5,52.6 2.9,30.3 -26,60.6 -56.3,56.3 12.3,-4.3 20.9,-17.3 20.9,-30.3 -0.7,-13 -10.1,-25.2 -23.1,-28.1 -17.3,-4.3 -36.1,9.4 -40.4,26.7 -4.3,17.3 5,36.1 19.5,46.2 14.5,10.1 33.9,12.3 51.2,8.7 31,-6.5 57,-32.5 64.9,-63.5 7.2,-31 -4.3,-65.6 -28.8,-85.8 -24.5,-20.2 -61.3,-24.5 -90.1,-10.8 13.7,-18 26,-36.8 32.5,-57.7 6.5,-20.9 7.2,-45.4 -3.6,-64.9 -13,-25.2 -40.4,-38.9 -63.5,-55.5 -23.1,-16.6 -44,-44 -35.3,-71.4 -12.3,38.9 -29.6,70.6 3.6,103.8"
   style="fill:#e4dbdb" />
			<path
   id="path561_1_"
   inkscape:connector-curvature="0"
   class="st1"
   d="m 7069.7,1034.2 c -58.4,-66.3 -151.5,-99.5 -238.7,-84.4 -34.6,5.8 -68.5,19.5 -92.3,44.7 -23.8,26 -33.9,64.9 -18.8,96.6 13.7,28.8 45.4,45.4 77.2,48.3 33.2,2.9 68.5,-8.7 88.7,-35.3 20.2,-26.7 19.5,-68.5 -5,-90.9 -24.5,-22.4 -71.4,-14.4 -82.9,16.6 -5.8,15.1 -2.2,34.6 11.5,44 13,9.4 34.6,5.8 41.8,-8.7 7.9,30.3 -23.1,61.3 -54.1,57.7 -31,-3.6 -54.1,-34.6 -53.4,-65.6 0.7,-31 21.6,-59.1 48.3,-74.3 26.7,-15.1 59.1,-18.8 90.1,-16.6 101,7.2 168.8,75 213.5,162.3 25.2,50.5 30.3,101 20.2,154.3 41.1,-81.3 11.6,-183 -46.1,-248.7"
   style="fill:#e4dbdb" />
			<path
   id="path565_1_"
   inkscape:connector-curvature="0"
   class="st1"
   d="m 7045.2,989.5 c -32.5,-9.4 -64.2,-31 -86.5,-57 -15.9,-18 -28.8,-38.2 -39.7,-59.1 -12.3,-24.5 -20.2,-51.9 -19.5,-79.3 0.7,-27.4 10.8,-55.5 30.3,-74.3 20.2,-18.8 50.5,-26.7 76.4,-17.3 28.1,10.8 45.4,42.6 39.7,72.1 -2.9,15.9 -13,30.3 -27.4,37.5 -14.4,7.2 -33.2,5 -44.7,-5.8 -7.9,-7.2 -11.5,-19.5 -7.9,-29.6 3.6,-10.1 13.7,-18 24.5,-16.6 10.8,1.4 18.8,13 15.9,23.8 13.7,-7.2 18.8,-26 13,-40.4 -6.5,-14.4 -21.6,-23.1 -36.8,-24.5 -32.5,-2.2 -60.6,28.1 -66.3,59.9 -5.8,32.5 6.5,64.9 20.9,93.8 25.8,49 61.2,90.2 108.1,116.8"
   style="fill:#e4dbdb" />
			<path
   id="path569_1_"
   inkscape:connector-curvature="0"
   class="st1"
   d="m 7048.8,1149.6 c -10.8,-31.7 -30.3,-59.9 -54.8,-82.9 -12.3,-11.5 -26,-20.9 -40.4,-29.6 -11.5,-6.5 -29.6,-20.2 -41.8,-21.6 70.7,8.7 130.5,55.5 157.9,121.2 15.1,37.5 18.8,82.9 -4.3,115.4 -23.8,33.2 -70.7,44.7 -109.6,31.7 -28.8,-9.4 -54.1,-31.7 -60.6,-61.3 -6.5,-29.6 12.3,-63.5 41.8,-70 12.3,-2.2 26.7,0.7 34.6,10.1 10.8,13 5,35.3 -9.4,43.3 -14.4,8.7 -34.6,2.9 -44.7,-10.8 -2.2,31.7 19.5,63.5 49.8,72.1 30.3,8.7 65.6,-5.8 81.5,-33.2 12.9,-24.5 9.3,-56.2 0,-84.4"
   style="fill:#e4dbdb" />
			<path
   id="path573_1_"
   inkscape:connector-curvature="0"
   class="st1"
   d="m 7135.3,1859.3 c 14.4,-13.7 31,-24.5 41.8,-41.8 19.5,-33.2 6.5,-75.7 -12.3,-108.9 -15.1,-27.4 -46.2,-62.7 -41.1,-95.2 4.3,-29.6 31,-57 58.4,-67.8 -21.6,21.6 -32.5,54.1 -26,83.7 7.2,29.6 33.9,54.1 64.2,56.3 30.3,1.4 61.3,-22.4 63.5,-52.6 2.9,-30.3 -26,-60.6 -56.3,-56.3 12.3,4.3 20.9,17.3 20.9,30.3 -0.7,13 -10.1,25.2 -23.1,28.1 -17.3,4.3 -36.1,-9.4 -40.4,-26.7 -4.3,-17.3 5,-36.1 19.5,-46.2 14.5,-10.1 33.9,-12.3 51.2,-8.7 31,6.5 57,32.5 64.9,63.5 7.2,31 -4.3,65.6 -28.8,85.8 -24.5,20.2 -61.3,24.5 -90.1,10.8 13.7,18 26,36.8 32.5,57.7 6.5,20.9 7.2,45.4 -3.6,64.9 -13,25.2 -40.4,38.9 -63.5,55.5 -23.1,16.6 -44,44 -35.3,71.4 -12.3,-38.9 -29.6,-70.6 3.6,-103.8"
   style="fill:#e4dbdb" />
			<path
   id="path577_1_"
   inkscape:connector-curvature="0"
   class="st1"
   d="m 7069.7,1911.2 c -58.4,66.3 -151.5,99.5 -238.7,84.4 -34.6,-5.8 -68.5,-19.5 -92.3,-44.7 -23.8,-26 -33.9,-64.9 -18.8,-96.6 13.7,-28.8 45.4,-45.4 77.2,-48.3 33.2,-2.9 68.5,8.7 88.7,35.3 20.2,26.7 19.5,68.5 -5,90.9 -24.5,22.4 -71.4,14.4 -82.9,-16.6 -5.8,-15.1 -2.2,-34.6 11.5,-44 13,-9.4 34.6,-5.8 41.8,8.7 7.9,-30.3 -23.1,-61.3 -54.1,-57.7 -31,3.6 -54.1,34.6 -53.4,65.6 0.7,31 21.6,59.1 48.3,74.3 26.7,15.1 59.1,18.8 90.1,16.6 101,-7.2 168.8,-75 213.5,-162.3 25.2,-50.5 30.3,-101 20.2,-154.3 41.1,81.4 11.6,183.1 -46.1,248.7"
   style="fill:#e4dbdb" />
			<path
   id="path581_1_"
   inkscape:connector-curvature="0"
   class="st1"
   d="m 7045.2,1955.9 c -32.5,9.4 -64.2,31 -86.5,57 -15.9,18 -28.8,38.2 -39.7,59.1 -12.3,24.5 -20.2,51.9 -19.5,79.3 0.7,27.4 10.8,55.5 30.3,74.3 20.2,18.8 50.5,26.7 76.4,17.3 28.1,-10.8 45.4,-42.6 39.7,-72.1 -2.9,-15.9 -13,-30.3 -27.4,-37.5 -14.4,-7.2 -33.2,-5 -44.7,5.8 -7.9,7.2 -11.5,19.5 -7.9,29.6 3.6,10.1 13.7,18 24.5,16.6 10.8,-1.4 18.8,-13 15.9,-23.8 13.7,7.2 18.8,26 13,40.4 -6.5,14.4 -21.6,23.1 -36.8,24.5 -32.5,2.2 -60.6,-28.1 -66.3,-59.9 -5.8,-32.5 6.5,-64.9 20.9,-93.8 25.8,-49 61.2,-90.1 108.1,-116.8"
   style="fill:#e4dbdb" />
			<path
   id="path585_1_"
   inkscape:connector-curvature="0"
   class="st1"
   d="m 7048.8,1795.8 c -10.8,31.7 -30.3,59.9 -54.8,82.9 -12.3,11.5 -26,20.9 -40.4,29.6 -11.5,6.5 -29.6,20.2 -41.8,21.6 70.7,-8.7 130.5,-55.5 157.9,-121.2 15.1,-37.5 18.8,-82.9 -4.3,-115.4 -23.8,-33.2 -70.7,-44.7 -109.6,-31.7 -28.8,9.4 -54.1,31.7 -60.6,61.3 -6.5,29.6 12.3,63.5 41.8,70 12.3,2.2 26.7,-0.7 34.6,-10.1 10.8,-13 5,-35.3 -9.4,-43.3 -14.4,-8.7 -34.6,-2.9 -44.7,10.8 -2.2,-31.7 19.5,-63.5 49.8,-72.1 30.3,-8.7 65.6,5.8 81.5,33.2 12.9,24.6 9.3,56.3 0,84.4"
   style="fill:#e4dbdb" />
			<path
   id="path589_1_"
   inkscape:connector-curvature="0"
   class="st1"
   d="m 7532.7,1435.2 c 41.1,35.3 120.4,35.3 120.4,35.3 0,0 -79.3,0 -120.4,35.3 -41.1,35.3 -103.9,50.5 -136.3,29.6 -32.5,-20.9 -64.2,-13.7 -64.2,-13.7 80.8,-28.8 137,-34.6 137,-51.2 0,-16.6 -60.6,-24.5 -137,-51.2 0,0 31.7,7.2 64.2,-13.7 32.4,-20.1 95.9,-5.7 136.3,29.6"
   style="fill:#e4dbdb" />
			<path
   id="path593_1_"
   inkscape:connector-curvature="0"
   class="st1"
   d="m 7019.2,1491.5 c -23.8,-20.9 -70,-20.9 -70,-20.9 0,0 46.2,0 70,-20.9 23.8,-20.9 59.9,-28.8 78.6,-17.3 18.8,12.3 36.8,7.9 36.8,7.9 -46.9,16.6 -79.3,20.2 -79.3,29.6 0,9.4 35.3,14.4 79.3,29.6 0,0 -18,-4.3 -36.8,7.9 -18.7,13.7 -54.8,5 -78.6,-15.9"
   style="fill:#e4dbdb" />
			<path
   id="path597_1_"
   inkscape:connector-curvature="0"
   class="st1"
   d="m 7237.7,1444.6 -67.1,26.7 67.1,26.7 67.1,-26.7 -44,-17.3 z"
   style="fill:#e4dbdb" />
		</g>
		<g
   id="g5352_1_"
   transform="rotate(-33.924084,332.40535,-139.0309)">
			<path
   id="path5354_1_"
   inkscape:connector-curvature="0"
   class="st1"
   d="m 1932.5,3901.5 c 4.3,0 10.1,-3.6 15.1,-3.6 5,0 10.1,0.7 15.1,3.6 8.7,5 15.1,16.6 18.8,25.2 7.9,18 8.7,40.4 -2.9,56.3 -13,18 -38.9,23.1 -61.3,18.8 -40.4,-7.9 -72.8,-40.4 -88,-77.9 -41.1,-102.4 38.2,-201.2 39.7,-302.9 1.4,-103.1 -32.5,-245.9 -147.1,-276.9 -28.8,-7.9 -61.3,-2.2 -82.9,18.8 -20.9,20.2 -27.4,53.4 -15.9,79.3 6.5,15.9 19.5,28.8 35.3,34.6 15.9,5 35.3,1.4 46.9,-11.5 8.7,-9.4 11.5,-22.4 9.4,-34.6 -2.2,-10.8 -10.1,-24.5 -22.4,-26 -8.7,-1.4 -18,3.6 -22.4,11.5 -4.3,7.9 -3.6,18 2.2,25.2 5,7.2 14.4,10.8 23.1,8.7 -11.5,12.3 -28.8,15.1 -42.6,3.6 -10.8,-8.7 -15.1,-23.1 -13.7,-36.8 2.2,-21.6 18.8,-41.1 38.9,-48.3 38.9,-14.4 76.4,10.1 100.2,40.4 41.1,53.4 18,113.2 -4.3,169.5 -26.7,67.1 -43.3,138.5 -33.2,211.3 11.5,78.6 59.9,163 126.2,207.7 21.6,14.4 47.6,24.5 74.3,22.4 26,-2.2 51.9,-18 61.3,-42.6 6.5,-16.6 5,-34.6 -1.4,-51.2 -7.2,-18 -21.6,-35.3 -41.8,-39.7 -13,-2.9 -28.1,0.7 -37.5,9.4 -10.1,9.4 -14.4,23.8 -10.1,36.8 2.9,8.7 9.4,15.9 18,17.3 8.7,2.2 18,-2.2 23.1,-9.4 5.1,-7.2 5,-17.3 0.7,-25.2 -2.8,-8.8 -11.4,-13.8 -20.8,-13.8"
   style="fill:#e4dbdb" />
		</g>
		<g
   id="g5672_1_"
   transform="matrix(-0.82977775,-0.55809394,-0.55809394,0.82977775,365.82494,161.84727)">
			<path
   id="path5670_1_"
   inkscape:connector-curvature="0"
   class="st1"
   d="m -5998.6,-1433 c 4.3,0 10.1,-3.6 15.1,-3.6 5,0 10.1,0.7 15.1,3.6 8.7,5 15.1,16.6 18.8,25.2 7.9,18 8.7,40.4 -2.9,56.3 -13,18 -38.9,23.1 -61.3,18.8 -40.4,-7.9 -72.8,-40.4 -88,-77.9 -41.1,-102.4 38.2,-201.2 39.7,-302.9 1.4,-103.1 -32.5,-245.9 -147.1,-276.9 -28.8,-7.9 -61.3,-2.2 -82.9,18.8 -20.9,20.2 -27.4,53.4 -15.9,79.3 6.5,15.9 19.5,28.8 35.3,34.6 15.9,5 35.3,1.4 46.9,-11.5 8.7,-9.4 11.5,-22.4 9.4,-34.6 -2.2,-10.8 -10.1,-24.5 -22.4,-26 -8.7,-1.4 -18,3.6 -22.4,11.5 -4.4,7.9 -3.6,18 2.2,25.2 5,7.2 14.4,10.8 23.1,8.7 -11.5,12.3 -28.8,15.1 -42.6,3.6 -10.8,-8.7 -15.1,-23.1 -13.7,-36.8 2.2,-21.6 18.8,-41.1 38.9,-48.3 38.9,-14.4 76.4,10.1 100.2,40.4 41.1,53.4 18,113.2 -4.3,169.5 -26.7,67.1 -43.3,138.5 -33.2,211.3 11.5,78.6 59.9,163 126.2,207.7 21.6,14.4 47.6,24.5 74.3,22.4 26,-2.2 51.9,-18 61.3,-42.6 6.5,-16.6 5,-34.6 -1.4,-51.2 -7.2,-18 -21.6,-35.3 -41.8,-39.7 -13,-2.9 -28.1,0.7 -37.5,9.4 -9.4,8.7 -14.4,23.8 -10.1,36.8 2.9,8.7 9.4,15.9 18,17.3 8.7,2.2 18,-2.2 23.1,-9.4 5,-7.2 5,-17.3 0.7,-25.2 -2.7,-8.8 -11.4,-13.8 -20.8,-13.8"
   style="fill:#e4dbdb" />
		</g>
		<g
   id="g5682_1_"
   transform="matrix(0.82977775,0.55809394,0.55809394,-0.82977775,134.17509,338.15273)">
			<path
   id="path5680_1_"
   inkscape:connector-curvature="0"
   class="st1"
   d="m 3297.6,1872.5 c 4.3,0 10.1,-3.6 15.1,-3.6 5,0 10.1,0.7 15.1,3.6 8.7,5 15.1,16.6 18.8,25.2 7.9,18 8.7,40.4 -2.9,56.3 -13,18 -38.9,23.1 -61.3,18.8 -40.4,-7.9 -72.8,-40.4 -88,-77.9 -41.1,-102.4 38.2,-201.2 39.7,-302.9 1.4,-103.1 -32.5,-245.9 -147.1,-276.9 -28.8,-7.9 -61.3,-2.2 -82.9,18.8 -20.9,20.2 -27.4,53.4 -15.9,79.3 6.5,15.9 19.5,28.8 35.3,34.6 15.9,5 35.3,1.4 46.9,-11.5 8.7,-9.4 11.5,-22.4 9.4,-34.6 -2.2,-10.8 -10.1,-24.5 -22.4,-26 -8.7,-1.4 -18,3.6 -22.4,11.5 -4.4,7.9 -3.6,18 2.2,25.2 5,7.2 14.4,10.8 23.1,8.7 -11.5,12.3 -28.8,15.1 -42.6,3.6 -10.8,-8.7 -15.1,-23.1 -13.7,-36.8 2.2,-21.6 18.8,-41.1 38.9,-48.3 38.9,-14.4 76.4,10.1 100.2,40.4 41.1,53.4 18,113.2 -4.3,169.5 -26.7,67.1 -43.3,138.5 -33.2,211.3 11.5,78.6 59.9,163 126.2,207.7 21.6,14.4 47.6,24.5 74.3,22.4 26,-2.2 51.9,-18 61.3,-42.6 6.5,-16.6 5,-34.6 -1.4,-51.2 -7.2,-18 -21.6,-35.3 -41.8,-39.7 -13,-2.9 -28.1,0.7 -37.5,9.4 -9.4,8.7 -14.4,23.8 -10.1,36.8 2.9,8.7 9.4,15.9 18,17.3 8.7,2.2 18,-2.2 23.1,-9.4 5,-7.2 5,-17.3 0.7,-25.2 -3.5,-9.5 -12.2,-13.8 -20.8,-13.8"
   style="fill:#e4dbdb" />
		</g>
		<g
   id="g5686_1_"
   transform="rotate(146.07592,131.34309,224.86584)">
			<path
   id="path5684_1_"
   inkscape:connector-curvature="0"
   class="st1"
   d="m -4633.5,-3462 c 4.3,0 10.1,-3.6 15.1,-3.6 5,0 10.1,0.7 15.1,3.6 8.7,5 15.1,16.6 18.8,25.2 7.9,18 8.7,40.4 -2.9,56.3 -13,18 -38.9,23.1 -61.3,18.8 -40.4,-7.9 -72.8,-40.4 -88,-77.9 -41.1,-102.4 38.2,-201.2 39.7,-302.9 1.4,-103.1 -32.5,-245.9 -147.1,-276.9 -28.8,-7.9 -61.3,-2.2 -82.9,18.8 -20.9,20.2 -27.4,53.4 -15.9,79.3 6.5,15.9 19.5,28.8 35.3,34.6 15.9,5 35.3,1.4 46.9,-11.5 8.7,-9.4 11.5,-22.4 9.4,-34.6 -2.2,-10.8 -10.1,-24.5 -22.4,-26 -8.7,-1.4 -18,3.6 -22.4,11.5 -4.4,7.9 -3.6,18 2.2,25.2 5,7.2 14.4,10.8 23.1,8.7 -11.5,12.3 -28.8,15.1 -42.6,3.6 -10.8,-8.7 -15.1,-23.1 -13.7,-36.8 2.2,-21.6 18.8,-41.1 38.9,-48.3 38.9,-14.4 76.4,10.1 100.2,40.4 41.1,53.4 18,113.2 -4.3,169.5 -26.7,67.1 -43.3,138.5 -33.2,211.3 11.5,78.6 59.9,163 126.2,207.7 21.6,14.4 47.6,24.5 74.3,22.4 26,-2.2 51.9,-18 61.3,-42.6 6.5,-16.6 5,-34.6 -1.4,-51.2 -7.2,-18 -21.6,-35.3 -41.8,-39.7 -13,-2.9 -28.1,0.7 -37.5,9.4 -9.4,8.7 -14.4,23.8 -10.1,36.8 2.9,8.7 9.4,15.9 18,17.3 8.7,2.2 18,-2.2 23.1,-9.4 5.1,-7.2 5,-17.3 0.7,-25.2 -3.5,-8.8 -12.1,-13.8 -20.8,-13.8"
   style="fill:#e4dbdb" />
		</g>
	</g>
	<g
   id="g114"
   transform="matrix(0.27776309,0,0,0.27776309,3695.6862,1018.3059)">
		<g
   id="g72"
   class="st2"
   style="enable-background:new">
			<path
   id="path60"
   inkscape:connector-curvature="0"
   class="st3"
   d="m 4408.5,1063.9 c -0.3,-88.3 -85.9,-135.5 -173.1,-135.1 -179.4,0.7 -282.8,101 -282.4,218.3 0.2,59.2 47.8,77.4 47.9,90 0.1,13.6 -6.7,18.5 -20.3,18.5 -51.4,0.2 -154.4,-46.9 -154.7,-123.6 -0.5,-144.5 204.6,-257.8 411.2,-258.5 147.4,-0.6 283.4,62 283.9,187.1 0.4,113.5 -133.2,178 -140,179.9 2.9,1 110.7,44.2 111.2,159.6 0.5,130 -119.6,184.7 -220.4,185.1 -87.3,0.3 -166.9,-36.2 -237.9,-73.8 -43.5,49.6 -92.8,75 -162.7,75.3 -79.5,0.3 -155.3,-42.1 -155.6,-110 -0.3,-71.8 67.5,-114.7 123.7,-114.9 50.4,-0.2 99,19 146.6,43.1 l 10.6,-18.5 c 53,-97.2 122.8,-349.6 162.5,-375 46.4,-31.2 95.9,-40.1 118.2,-40.2 13.6,-0.1 16.5,5.8 16.5,13.5 0,7.8 -32.8,37.9 -55.9,89.4 -11.5,27.2 -75.8,227.2 -139.3,340.9 -7.7,14.6 -15.4,27.2 -23.1,39.8 53.5,29.9 105.9,54.9 159.3,54.7 71.8,-0.3 135.6,-52.9 135.3,-134.3 -0.2,-63 -33.4,-101.7 -60.5,-104.5 0,0 -28.1,11.7 -49.4,11.8 -28.1,0.1 -51.5,-16.3 -51.6,-41.5 -0.1,-28.1 23.1,-43.7 49.3,-43.8 27.2,-0.1 60.2,10.4 60.2,10.4 0,0 90.9,-47.7 90.5,-143.7 z m -613.3,420.3 c 0.1,26.2 26.3,43.5 57.4,43.4 39.8,-0.1 66.8,-20.6 95.8,-61.5 -36.9,-18.3 -70.9,-30.8 -101.9,-30.7 -30.1,0.2 -51.4,22.6 -51.3,48.8 z"
   style="fill:#f16377" />
			<path
   id="path62"
   inkscape:connector-curvature="0"
   class="st3"
   d="m 4699.5,1583.6 c -98,0.4 -169,-59.5 -169.3,-141.9 -0.6,-148.4 122.2,-246.8 206.6,-247.1 59.2,-0.2 106.9,50 107.1,101.4 0.2,46.6 -35.3,143.7 -157.5,144.1 -10.7,0 -36.9,-5.7 -36.9,-5.7 0.2,57.2 39.1,90 85.7,89.9 92.1,-0.3 149,-89.8 149,-89.8 0,0 7.7,-13.6 19.3,-13.6 10.7,0 20.4,8.7 20.4,19.3 0,8.7 -8.6,23.3 -8.6,23.3 0,0 -68.4,119.5 -215.8,120.1 z m 80.2,-320.4 c 0,-12.6 -6.9,-19.4 -17.5,-19.3 -53.3,0.2 -108.2,100.3 -108.1,150.7 70.8,-0.3 125.8,-90.7 125.6,-131.4 z"
   style="fill:#f16377" />
			<path
   id="path64"
   inkscape:connector-curvature="0"
   class="st3"
   d="m 5209.6,1581.6 c -53.3,0.2 -95.1,-27.8 -102.1,-82.1 0,0 -63.7,82.7 -137.4,83 -52.4,0.2 -97.1,-41.3 -97.4,-100.5 -0.5,-139.7 115.3,-288.5 222,-288.9 78.6,-0.3 105.9,45.2 105.9,45.2 29.1,-0.1 68.9,11.4 69,45.3 0.1,29.1 -55.7,139.9 -55.5,205.8 0.1,15.5 10.8,27.1 27.3,27.1 52.4,-0.2 103.5,-83.8 103.5,-83.8 0,0 7.7,-13.6 19.3,-13.6 10.7,0 20.4,8.7 20.4,19.3 0,8.7 -8.6,23.3 -8.6,23.3 0,0 -70.4,119.6 -166.4,119.9 z m -94.4,-332.3 c -56.2,0.2 -124.6,134.3 -124.3,215.8 0.1,28.1 7.9,43.6 28.3,43.5 46.6,-0.2 131.4,-143.1 131.1,-217.7 -0.1,-28.1 -15.7,-41.6 -35.1,-41.6 z"
   style="fill:#f16377" />
			<path
   id="path66"
   inkscape:connector-curvature="0"
   class="st3"
   d="m 5714.6,1514.8 c 52.4,-0.2 103.5,-83.8 103.5,-83.8 0,0 7.7,-13.6 19.3,-13.6 10.7,0 20.4,8.7 20.4,19.3 0,8.7 -8.6,23.3 -8.6,23.3 0,0 -70.4,119.6 -166.4,119.9 -73.7,0.3 -105.8,-36.5 -117.6,-72.3 -30.9,36 -82.2,73 -132.6,73.2 -44.6,0.2 -101,-41.3 -101.2,-93.7 -0.3,-69.8 51.5,-222.3 74.6,-276.7 4.8,-10.7 14.5,-18.5 26.1,-18.5 29.1,-0.1 76.8,40.4 76.8,55 0.2,58.2 -62.5,149.6 -62.1,243.7 0.1,15.5 7.9,29.1 22.4,29 31,-0.1 69.7,-38.1 85.1,-69.2 21.2,-41.8 57.5,-186.4 80.6,-240.8 4.8,-10.7 14.5,-18.5 27.1,-18.5 28.1,-0.1 75.8,40.4 75.9,55 0.2,58.2 -54.8,137.9 -54.4,232 0,22.2 11.7,36.7 31.1,36.7 z"
   style="fill:#f16377" />
			<path
   id="path68"
   inkscape:connector-curvature="0"
   class="st3"
   d="m 6081.8,1430 c 0,0 7.7,-13.6 19.3,-13.6 10.7,0 20.4,8.7 20.4,19.3 0,8.7 -8.6,23.3 -8.6,23.3 0,0 -70.3,119.6 -166.4,119.9 -61.1,0.2 -137.9,-47 -138.1,-114.9 -0.2,-53.3 27.5,-164 61.1,-265 l -26.2,0.1 c -4.8,0 -7.8,-2.9 -7.8,-8.7 0,-9.7 15.4,-34 29,-34.1 l 19.4,-0.1 c 19.2,-52.4 38.4,-99.1 55.8,-130.2 4.8,-10.7 14.5,-18.5 26.1,-18.5 29.1,-0.1 75.8,40.4 75.9,57.9 0,8.7 -14.4,42.7 -31.7,90.3 l 65,-0.2 c 4.8,0 7.8,2.9 7.8,8.7 0,9.7 -16.4,34 -29,34.1 l -60.1,0.2 c -31.7,86.4 -67.2,195.2 -66.9,265 0.1,29.1 23.5,50.3 51.6,50.2 52.4,-0.1 103.4,-83.7 103.4,-83.7 z"
   style="fill:#f16377" />
			<path
   id="path70"
   inkscape:connector-curvature="0"
   class="st3"
   d="m 6406.2,1542.2 c 61,-36.1 99.6,-75.1 127.6,-114 0,0 9.6,-13.6 21.3,-13.7 11.6,0 20.4,8.7 20.4,19.3 0,8.7 -10.6,23.3 -10.6,23.3 -33.8,45.7 -84,93.4 -173.1,140.3 -32.5,116.5 -81.5,246.6 -198.9,247.1 -59.2,0.2 -109.7,-40.3 -109.9,-91.7 -0.2,-65.9 84.9,-108 202.1,-155 9.6,-35.9 16.2,-69.9 21,-93.2 -30.9,36 -82.2,73 -132.6,73.2 -44.6,0.2 -101,-41.3 -101.2,-93.7 -0.3,-69.8 51.5,-222.3 74.6,-276.7 4.8,-10.7 14.5,-18.5 26.1,-18.5 29.1,-0.1 76.8,40.4 76.8,55 0.2,50.4 -62.4,158.3 -62.1,243.7 0.1,15.5 7.9,29.1 22.4,29 31,-0.1 68.7,-39.1 85.1,-69.2 36.6,-67.1 61.4,-174.8 80.6,-240.8 2.9,-11.6 14.5,-18.5 27.1,-18.5 28.1,-0.1 75.8,40.4 75.9,55 0.1,27.2 -33.3,159.2 -61.1,255.3 z m -138.3,116 c -68.7,39.1 -117,88.7 -116.9,115.8 0,12.6 5.9,19.4 17.5,19.3 42.7,-0.1 76.4,-64.2 99.4,-135.1 z"
   style="fill:#f16377" />
		</g>
		<g
   id="g112"
   class="st2"
   style="enable-background:new">
			<path
   id="path74"
   inkscape:connector-curvature="0"
   class="st1"
   d="m 3964.7,1680.9 h 50.6 c 32.9,0 57.1,11.5 57.1,46.5 0,33.4 -24.8,48.8 -57.1,48.8 h -23.9 v 55.2 h -26.7 z m 48.3,73.9 c 22.5,0 33.1,-9 33.1,-27.4 0,-18.9 -11.3,-25.1 -33.1,-25.1 h -21.6 v 52.5 z"
   style="fill:#e4dbdb" />
			<path
   id="path76"
   inkscape:connector-curvature="0"
   class="st1"
   d="m 4137.5,1715.7 c 30.6,0 46.7,22.1 46.7,53.6 0,5.1 -0.5,9.7 -1.2,12.4 h -71.8 c 2.3,20.5 15.2,32 33.4,32 9.7,0 17.9,-3 26.2,-8.3 l 9,16.6 c -10.8,7.1 -24.4,12.2 -38.7,12.2 -31.3,0 -55.7,-21.9 -55.7,-59.1 0.1,-36.9 25.6,-59.4 52.1,-59.4 z m 23.7,49.2 c 0,-17.9 -7.6,-28.8 -23,-28.8 -13.3,0 -24.8,9.9 -27.1,28.8 z"
   style="fill:#e4dbdb" />
			<path
   id="path78"
   inkscape:connector-curvature="0"
   class="st1"
   d="m 4209.5,1669 h 26.5 v 134.8 c 0,6.4 3,8.7 5.8,8.7 1.2,0 2.1,0 4.1,-0.5 l 3.5,19.8 c -3.2,1.4 -7.8,2.3 -14,2.3 -18.9,0 -25.8,-12.2 -25.8,-31.8 V 1669 Z"
   style="fill:#e4dbdb" />
			<path
   id="path80"
   inkscape:connector-curvature="0"
   class="st1"
   d="m 4270.7,1718.4 h 26.5 v 67.4 c 0,18.6 5.3,25.5 17.5,25.5 9.9,0 16.6,-4.6 25.1,-15.6 v -77.3 h 26.5 v 113 h -21.6 l -2.1,-16.6 h -0.7 c -9.9,11.7 -20.9,19.3 -36.4,19.3 -24.2,0 -34.7,-16.3 -34.7,-44.9 z"
   style="fill:#e4dbdb" />
			<path
   id="path82"
   inkscape:connector-curvature="0"
   class="st1"
   d="m 4440.7,1715.7 c 12.7,0 21.9,4.4 31.3,13.6 h 0.7 l 2.3,-10.8 h 20.9 V 1876 h -26.5 v -37 l 0.9,-18.6 c -8.3,7.8 -19.6,13.8 -31.1,13.8 -28.3,0 -46.5,-21.9 -46.5,-59.1 0.2,-36.9 23.4,-59.4 48,-59.4 z m 5.1,96.6 c 8.7,0 16.1,-3.9 23.7,-12.7 V 1747 c -7.8,-6.9 -15.4,-9.4 -23,-9.4 -14.5,0 -26.2,13.6 -26.2,37.3 -0.1,24.3 9.1,37.4 25.5,37.4 z"
   style="fill:#e4dbdb" />
			<path
   id="path84"
   inkscape:connector-curvature="0"
   class="st1"
   d="m 4527.7,1718.4 h 26.5 v 67.4 c 0,18.6 5.3,25.5 17.5,25.5 9.9,0 16.6,-4.6 25.1,-15.6 v -77.3 h 26.5 v 113 h -21.6 l -2.1,-16.6 h -0.7 c -9.9,11.7 -20.9,19.3 -36.4,19.3 -24.2,0 -34.7,-16.3 -34.7,-44.9 z"
   style="fill:#e4dbdb" />
			<path
   id="path86"
   inkscape:connector-curvature="0"
   class="st1"
   d="m 4701.4,1715.7 c 30.6,0 46.7,22.1 46.7,53.6 0,5.1 -0.5,9.7 -1.2,12.4 h -71.8 c 2.3,20.5 15.2,32 33.4,32 9.7,0 17.9,-3 26.2,-8.3 l 9,16.6 c -10.8,7.1 -24.4,12.2 -38.7,12.2 -31.3,0 -55.7,-21.9 -55.7,-59.1 0.1,-36.9 25.6,-59.4 52.1,-59.4 z m 23.7,49.2 c 0,-17.9 -7.6,-28.8 -23,-28.8 -13.3,0 -24.8,9.9 -27.1,28.8 z"
   style="fill:#e4dbdb" />
			<path
   id="path88"
   inkscape:connector-curvature="0"
   class="st1"
   d="m 4773.4,1718.4 h 21.9 l 1.8,20 h 0.9 c 8.1,-14.7 20,-22.8 32,-22.8 5.8,0 9.4,0.7 12.9,2.3 l -4.6,23 c -3.9,-1.2 -6.9,-1.8 -11.7,-1.8 -9,0 -19.8,6.2 -26.7,23.2 v 69 h -26.5 z"
   style="fill:#e4dbdb" />
			<path
   id="path90"
   inkscape:connector-curvature="0"
   class="st1"
   d="m 4875.3,1699.6 h -19.8 l 20.7,-33.6 h 26.2 z m -16.1,18.8 h 26.5 v 113 h -26.5 z"
   style="fill:#e4dbdb" />
			<path
   id="path92"
   inkscape:connector-curvature="0"
   class="st1"
   d="m 4981.1,1759.2 c -0.2,-12 -5.3,-22.1 -20.5,-22.1 -11.3,0 -21.9,5.1 -31.8,11 l -9.7,-17.7 c 12.4,-7.8 28.3,-14.7 46.2,-14.7 28.3,0 42.1,17.3 42.1,48.8 v 67 H 4986 l -2.1,-12.4 h -0.7 c -10.1,8.5 -21.6,15.2 -35,15.2 -19.8,0 -33.6,-13.3 -33.6,-33.1 0,-24.3 20.3,-37 66.5,-42 z m -24.6,54.2 c 9.2,0 16.3,-4.6 24.6,-12.4 v -25.3 c -30.6,3.9 -40.7,12 -40.7,23.2 0,10.2 6.7,14.5 16.1,14.5 z"
   style="fill:#e4dbdb" />
			<path
   id="path94"
   inkscape:connector-curvature="0"
   class="st1"
   d="m 5092.7,1856.5 c 12,0 18.9,-8.1 22.5,-19.3 l 2.1,-7.1 -44.4,-111.6 h 26.9 l 19.6,55.4 c 3.2,9.9 6.4,21.2 9.9,31.8 h 0.9 c 2.8,-10.4 5.8,-21.6 8.5,-31.8 l 17,-55.4 h 25.5 l -41,118 c -9.4,25.5 -21.2,41.4 -45.8,41.4 -6.2,0 -10.6,-0.9 -14.7,-2.3 l 4.8,-20.7 c 2.2,0.7 5.5,1.6 8.2,1.6 z"
   style="fill:#e4dbdb" />
			<path
   id="path96"
   inkscape:connector-curvature="0"
   class="st1"
   d="m 5292.7,1715.7 c 30.6,0 46.7,22.1 46.7,53.6 0,5.1 -0.5,9.7 -1.2,12.4 h -71.8 c 2.3,20.5 15.2,32 33.4,32 9.7,0 17.9,-3 26.2,-8.3 l 9,16.6 c -10.8,7.1 -24.4,12.2 -38.7,12.2 -31.3,0 -55.7,-21.9 -55.7,-59.1 0.1,-36.9 25.6,-59.4 52.1,-59.4 z m 23.6,49.2 c 0,-17.9 -7.6,-28.8 -23,-28.8 -13.3,0 -24.8,9.9 -27.1,28.8 z"
   style="fill:#e4dbdb" />
			<path
   id="path98"
   inkscape:connector-curvature="0"
   class="st1"
   d="m 5365.8,1801.5 c 10.1,7.8 19.8,12.7 31.3,12.7 12.2,0 17.9,-5.8 17.9,-13.6 0,-9.4 -12.2,-13.6 -24.2,-18.2 -15,-5.5 -31.8,-14 -31.8,-32.9 0,-19.8 15.9,-33.8 41.2,-33.8 15.6,0 28.3,6.4 37.5,13.6 l -12.2,16.1 c -7.8,-5.8 -15.9,-9.7 -24.8,-9.7 -11.3,0 -16.6,5.3 -16.6,12.4 0,8.7 11.3,12.4 23.5,16.8 15.4,5.8 32.4,13.1 32.4,34.3 0,19.3 -15.4,35 -43.9,35 -15.4,0 -31.8,-6.7 -42.8,-15.6 z"
   style="fill:#e4dbdb" />
			<path
   id="path100"
   inkscape:connector-curvature="0"
   class="st1"
   d="m 5467.7,1739.4 h -16.1 v -19.8 l 17.5,-1.2 3.2,-30.8 h 22.1 v 30.8 h 28.8 v 20.9 h -28.8 v 53.8 c 0,13.3 5.1,19.8 15.9,19.8 3.9,0 8.5,-1.1 11.7,-2.5 l 4.6,19.6 c -6.2,2.1 -14,4.1 -23,4.1 -26.2,0 -35.9,-16.6 -35.9,-41 z"
   style="fill:#e4dbdb" />
			<path
   id="path102"
   inkscape:connector-curvature="0"
   class="st1"
   d="m 5589.2,1715.7 c 30.6,0 46.7,22.1 46.7,53.6 0,5.1 -0.5,9.7 -1.2,12.4 H 5563 c 2.3,20.5 15.2,32 33.4,32 9.7,0 17.9,-3 26.2,-8.3 l 9,16.6 c -10.8,7.1 -24.4,12.2 -38.7,12.2 -31.3,0 -55.7,-21.9 -55.7,-59.1 0,-36.9 25.6,-59.4 52,-59.4 z m 23.7,49.2 c 0,-17.9 -7.6,-28.8 -23,-28.8 -13.3,0 -24.8,9.9 -27.1,28.8 z m -20.9,-65.3 h -19.6 l 20.5,-33.6 h 26.5 z"
   style="fill:#e4dbdb" />
			<path
   id="path104"
   inkscape:connector-curvature="0"
   class="st1"
   d="m 5661.5,1739.4 h -16.1 v -19.8 l 17.5,-1.2 3.2,-30.8 h 22.1 v 30.8 h 28.8 v 20.9 h -28.8 v 53.8 c 0,13.3 5.1,19.8 15.9,19.8 3.9,0 8.5,-1.1 11.7,-2.5 l 4.6,19.6 c -6.2,2.1 -14,4.1 -23,4.1 -26.2,0 -35.9,-16.6 -35.9,-41 z"
   style="fill:#e4dbdb" />
			<path
   id="path106"
   inkscape:connector-curvature="0"
   class="st1"
   d="m 5737.6,1683.7 c 0,-9 6.9,-15.2 16.3,-15.2 9.4,0 16.3,6.2 16.3,15.2 0,8.7 -6.9,15 -16.3,15 -9.4,-0.1 -16.3,-6.3 -16.3,-15 z m 3,34.7 h 26.5 v 113 h -26.5 z"
   style="fill:#e4dbdb" />
			<path
   id="path108"
   inkscape:connector-curvature="0"
   class="st1"
   d="m 5850.1,1715.7 c 14.5,0 25.5,5.8 33.1,13.1 l -12.7,16.8 c -6,-5.3 -12,-8.3 -19.1,-8.3 -18.2,0 -30.8,15 -30.8,37.7 0,22.5 12.4,37.5 30.1,37.5 9.2,0 17,-4.6 23.2,-9.7 l 11,16.8 c -10.6,9.4 -24.2,14.5 -37,14.5 -30.8,0 -54.5,-21.6 -54.5,-59.1 0.1,-37.7 26.6,-59.3 56.7,-59.3 z"
   style="fill:#e4dbdb" />
			<path
   id="path110"
   inkscape:connector-curvature="0"
   class="st1"
   d="m 5966.5,1759.2 c -0.2,-12 -5.3,-22.1 -20.5,-22.1 -11.3,0 -21.9,5.1 -31.8,11 l -9.7,-17.7 c 12.4,-7.8 28.3,-14.7 46.2,-14.7 28.3,0 42.1,17.3 42.1,48.8 v 67 h -21.6 l -2.1,-12.4 h -0.7 c -10.1,8.5 -21.6,15.2 -35,15.2 -19.8,0 -33.6,-13.3 -33.6,-33.1 0.2,-24.3 20.5,-37 66.7,-42 z m -24.6,54.2 c 9.2,0 16.3,-4.6 24.6,-12.4 v -25.3 c -30.6,3.9 -40.7,12 -40.7,23.2 0,10.2 6.7,14.5 16.1,14.5 z"
   style="fill:#e4dbdb" />
		</g>
	</g>
</g>
</svg>