<svg height="480pt" viewBox="0 0 480.00066 480" width="480pt" xmlns="http://www.w3.org/2000/svg" fill="#5052b5"><path d="m263.992188 447.96875c0 17.671875 14.324218 32 32 32h40c17.671874 0 32-14.328125 32-32v-190.457031l15.429687-38.566407c.183594-.542968.335937-1.097656.457031-1.65625l8-48c.074219-.4375.109375-.878906.113282-1.320312 0-37.800781-65.929688-61.054688-73.457032-63.582031-1.898437-.640625-3.964844-.542969-5.792968.269531-5.679688 2.519531-11.253907 4.800781-16.613282 7.023438-28.875 11.875-56.136718 23.082031-56.136718 56.289062 0 .441406.039062.882812.109374 1.320312l8 48c.125.558594.277344 1.113282.457032 1.65625l15.433594 38.566407zm88 0c0 8.835938-7.164063 16-16 16h-40c-8.835938 0-16-7.164062-16-16v-152h72zm0-168h-72v-16h72zm2.582031-32h-77.167969l-9.597656-24h96.367187zm-91.808594-40-6.773437-40.632812c.304687-21.007813 16.144531-28.496094 46.207031-40.863282 4.574219-1.871094 9.296875-3.824218 14.105469-5.902344 18.085937 6.597657 58.886718 25.925782 59.6875 46.796876l-6.777344 40.601562h-23.464844l6.082031-30.398438c.671875-2.847656-.261719-5.832031-2.4375-7.789062-2.171875-1.953125-5.242187-2.566406-8-1.597656-2.757812.96875-4.769531 3.363281-5.242187 6.25l-6.722656 33.535156h-26.878907l-6.71875-33.601562c-.476562-2.882813-2.484375-5.28125-5.246093-6.25-2.757813-.96875-5.824219-.355469-8 1.601562-2.171876 1.953125-3.105469 4.941406-2.433594 7.785156l6.078125 30.402344zm0 0"/><path d="m24.136719 105.710938 7.855469 70.722656v271.535156c0 17.671875 14.324218 32 32 32 17.671874 0 32-14.328125 32-32v-271.535156l7.855468-70.722656 23.726563-70.542969c.960937-2.894531.191406-6.085938-1.984375-8.222657-.582032-.578124-62.3125-60.335937-123.199219 0-2.175781 2.136719-2.945313 5.328126-1.984375 8.222657zm55.855469 342.257812c0 8.835938-7.164063 16-16 16-8.835938 0-16-7.164062-16-16v-232h32zm0-248h-32v-16h32zm.800781-32h-33.601563l-6.230468-56h46.125zm29.933593-132.878906-20.488281 60.878906h-8.488281l6.082031-30.398438c.882813-4.332031-1.910156-8.558593-6.242187-9.441406-4.328125-.882812-8.554688 1.910156-9.4375 6.238282l-6.722656 33.601562h-2.878907l-6.71875-33.601562c-.476562-2.882813-2.484375-5.28125-5.246093-6.25-2.757813-.96875-5.824219-.355469-8 1.601562-2.171876 1.953125-3.105469 4.941406-2.433594 7.785156l6.078125 30.464844h-8.488281l-20.542969-61.039062c41.246093-37.105469 81.375-9.863282 93.527343.160156zm0 0"/><path d="m295.992188 320.855469h16v95.113281h-16zm0 0"/><path d="m295.992188 431.96875h16v16h-16zm0 0"/><path d="m143.992188 447.96875c0 17.671875 14.324218 32 32 32 17.671874 0 32-14.328125 32-32v-231.503906l15.902343-114.824219c.300781-1.898437-.097656-3.835937-1.121093-5.464844-.796876-1.277343-19.414063-30.453125-46.03125-32.054687-.261719 0-.488282-.152344-.75-.152344-.136719 0-.242188.070312-.378907.070312-.375 0-.726562-.070312-1.109375-.070312-16.695312 0-31.945312 10.832031-45.296875 32.207031-1.019531 1.628907-1.417969 3.566407-1.121093 5.464844l16 113.894531c0 .152344-.085938.28125-.085938.433594zm48 0c0 8.835938-7.164063 16-16 16-8.835938 0-16-7.164062-16-16v-192h32zm0-208h-32v-16h32zm.933593-32h-33.6875l-6.152343-48h45.839843zm-24.933593-126.921875v38.921875c0 4.417969 3.582031 8 8 8 4.417968 0 8-3.582031 8-8v-38.007812c9.460937 4.667968 17.585937 11.664062 23.605468 20.328124l-6.453125 41.679688h-50.304687l-6.480469-41.785156c5.261719-9.511719 13.59375-16.960938 23.632813-21.136719zm0 0"/><path d="m461.046875 74.449219-15.265625-16c-3.210938-3.167969-8.371094-3.167969-11.582031 0l-15.265625 16c-12.375 12.960937-23.382813 34.398437-17.132813 55.839843l14.191407 46.863282v282.816406c0 11.046875 8.953124 20 20 20h8c11.042968 0 20-8.953125 20-20v-282.816406l14.214843-46.945313c6.222657-21.34375-4.785156-42.796875-17.160156-55.757812zm-30.535156 11.039062 9.480469-9.925781 9.480468 9.925781c9.292969 9.746094 17.6875 25.433594 13.398438 40.160157l-12.816406 42.320312h-20.128907l-12.796875-42.238281c-4.335937-14.808594 4.085938-30.496094 13.382813-40.242188zm1.480469 98.480469h16v16h-16zm16 276c0 2.210938-1.792969 4-4 4h-8c-2.210938 0-4-1.789062-4-4v-244h16zm0 0"/></svg>
