<svg height="640pt" viewBox="-20 -20 640.01038 640" width="640pt" xmlns="http://www.w3.org/2000/svg" fill="#5052b5"><path d="m130.007812 170.003906c22.089844 0 40-17.910156 40-40s-17.910156-40-40-40c-22.09375 0-40 17.910156-40 40s17.90625 40 40 40zm0-60c11.042969 0 20 8.957032 20 20 0 11.046875-8.957031 20-20 20-11.046874 0-20-8.953125-20-20 0-11.042968 8.953126-20 20-20zm0 0"/><path d="m120.007812 270.003906c0-22.089844-17.910156-40-40-40-22.09375 0-40 17.910156-40 40s17.90625 40 40 40c22.089844 0 40-17.910156 40-40zm-60 0c0-11.042968 8.953126-20 20-20 11.042969 0 20 8.957032 20 20 0 11.046875-8.957031 20-20 20-11.046874 0-20-8.953125-20-20zm0 0"/><path d="m100.007812 370.003906c-22.09375 0-40 17.910156-40 40s17.90625 40 40 40c22.089844 0 40-17.910156 40-40s-17.910156-40-40-40zm0 60c-11.046874 0-20-8.953125-20-20 0-11.042968 8.953126-20 20-20 11.042969 0 20 8.957032 20 20 0 11.046875-8.957031 20-20 20zm0 0"/><path d="m470.007812 170.003906c22.089844 0 40-17.910156 40-40s-17.910156-40-40-40c-22.09375 0-40 17.910156-40 40s17.90625 40 40 40zm0-60c11.042969 0 20 8.957032 20 20 0 11.046875-8.957031 20-20 20-11.046874 0-20-8.953125-20-20 0-11.042968 8.953126-20 20-20zm0 0"/><path d="m480.007812 270.003906c0 22.089844 17.90625 40 40 40 22.089844 0 40-17.910156 40-40s-17.910156-40-40-40c-22.09375 0-40 17.910156-40 40zm60 0c0 11.046875-8.957031 20-20 20-11.046874 0-20-8.953125-20-20 0-11.042968 8.953126-20 20-20 11.042969 0 20 8.957032 20 20zm0 0"/><path d="m546.832031 345.273438c36.210938-12.851563 58.144531-49.65625 52.214844-87.621094-5.933594-37.960938-38.046875-66.324219-76.453125-67.515625 32.730469-28.613281 36.582031-78.140625 8.671875-111.46875-27.914063-33.332031-77.347656-38.234375-111.257813-11.03125v-57.632813c0-5.519531-4.476562-9.99999975-10-9.99999975h-220c-5.523437 0-10 4.48046875-10 9.99999975v57.78125c-33.867187-27.28125-83.339843-22.441406-111.28125 10.878906-27.941406 33.324219-24.082031 82.878907 8.6875 111.472657-38.402343 1.191406-70.515624 29.554687-76.449218 67.515625-5.933594 37.964844 16 74.769531 52.210937 87.621094-29.207031 21.109374-40.683593 59.152343-28.011719 92.886718 12.664063 33.734375 46.34375 54.824219 82.226563 51.488282 35.878906-3.335938 65.09375-30.269532 71.324219-65.761719 11.339844 15.804687 25.304687 29.550781 41.292968 40.640625v55.476562h-90c-27.601562.035156-49.972656 22.398438-50 50v20c0 5.523438 4.476563 10 10 10h420c5.523438 0 10-4.476562 10-10v-20c-.035156-27.601562-22.402343-49.964844-50-50h-90v-55.476562c15.980469-11.089844 29.949219-24.835938 41.289063-40.640625 6.167969 35.578125 35.410156 62.613281 71.363281 65.980469 35.949219 3.371093 69.707032-17.761719 82.371094-51.582032 12.671875-33.8125 1.117188-71.921875-28.199219-93.011718zm33.175781-75.269532c0 33.136719-26.867187 60-60 60-33.140624 0-60-26.863281-60-60 0-33.132812 26.859376-60 60-60 33.121094.035156 59.964844 26.875 60 60zm-130.582031-37.578125c-3.203125-10.078125-7.167969-19.890625-11.859375-29.359375 9.414063 4.183594 19.550782 6.5 29.847656 6.808594-7.304687 6.371094-13.402343 14.011719-17.988281 22.550781zm20.582031-162.421875c31.863282-.039062 58.207032 24.84375 59.976563 56.667969 1.769531 31.820313-21.640625 59.472656-53.320313 62.972656-31.675781 3.496094-60.5625-18.378906-65.777343-49.820312 5.132812-.40625 9.089843-4.671875 9.121093-9.820313v-32.996094c11.011719-16.894531 29.832032-27.054687 50-27.003906zm-70 50h-50v-100h50zm-70-100v100h-60v-100zm-179.425781 212.421875c-4.589843-8.542969-10.6875-16.179687-17.996093-22.550781 10.296874-.3125 20.433593-2.625 29.847656-6.808594-4.6875 9.472656-8.648438 19.289063-11.851563 29.359375zm49.425781-212.421875h50v100h-50zm-130 110c-.042968-26.496094 17.320313-49.875 42.699219-57.492187 25.382813-7.613281 52.75 2.347656 67.300781 24.496093v32.996094c.023438 5.148438 3.988282 9.414063 9.117188 9.820313-5.292969 30.617187-33.085938 52.121093-64.050781 49.566406-30.960938-2.550781-54.855469-28.316406-55.066407-59.386719zm-50 140c0-33.132812 26.859376-60 60-60 33.132813 0 60 26.867188 60 60 0 33.136719-26.867187 60-60 60-33.125-.03125-59.972656-26.875-60-60zm80 200c-33.140624 0-60-26.863281-60-60 0-33.132812 26.859376-60 60-60 33.132813 0 60 26.867188 60 60-.035156 33.125-26.878906 59.96875-60 60zm26.824219-135.265625c5.269531-3.816406 10.066407-8.25 14.273438-13.203125.714843 7.421875 1.78125 14.726563 3.207031 21.914063-5.441406-3.613281-11.316406-6.539063-17.480469-8.710938zm237.8125 116c-2.890625 1.835938-4.640625 5.023438-4.636719 8.445313v70.820312c0 5.523438 4.476563 10 10 10h100c16.566407 0 30 13.433594 30 30v10h-400v-10c0-16.566406 13.425782-30 30-30h100c5.523438 0 10-4.476562 10-10v-70.859375c0-3.425781-1.75-6.613281-4.644531-8.449219-46.480469-29.5-75.355469-87.238281-75.355469-150.691406-1.007812-51.257812 19.390626-100.625 56.277344-136.230468-3.40625 21.933593-5.507812 44.050781-6.277344 66.230468 0 5.523438 4.476563 10 10 10 5.523438 0 10-4.476562 10-10 1.351563-27.777344 4.359376-55.453125 9-82.878906 4.453126-2.652344 9.054688-5.03125 13.796876-7.121094h5.523437c-4.710937 29.792969-7.496094 59.855469-8.320313 90 0 5.523438 4.476563 10 10 10 5.523438 0 10-4.476562 10-10 .917969-30.148437 3.773438-60.214844 8.558594-90h11.441406v90c0 5.523438 4.476563 10 10 10 5.523438 0 10-4.476562 10-10v-90h11.441407c4.777343 29.785156 7.636719 59.851563 8.558593 90 0 5.523438 4.476563 10 10 10 5.523438 0 10-4.476562 10-10-.832031-30.144531-3.609374-60.207031-8.320312-90h5.507812c4.75 2.089844 9.371094 4.46875 13.832032 7.121094 4.632812 27.425781 7.632812 55.101562 8.980468 82.878906 0 5.523438 4.476563 10 10 10 5.523438 0 10-4.476562 10-10-.777343-22.179687-2.871093-44.296875-6.28125-66.230468 36.890626 35.605468 57.28125 84.972656 56.28125 136.230468 0 63.453125-28.882812 121.191406-75.363281 150.691406zm94.257813-129.203125c4.214844 4.953125 9.003906 9.386719 14.273437 13.203125-6.160156 2.171875-12.03125 5.097657-17.480469 8.710938 1.421876-7.183594 2.492188-14.488281 3.207032-21.914063zm41.105468 148.46875c-33.140624 0-60-26.863281-60-60 0-33.132812 26.859376-60 60-60 33.132813 0 60 26.867188 60 60-.035156 33.125-26.878906 59.96875-60 60zm0 0"/><path d="m500.007812 370.003906c-22.09375 0-40 17.910156-40 40s17.90625 40 40 40c22.089844 0 40-17.910156 40-40s-17.910156-40-40-40zm0 60c-11.046874 0-20-8.953125-20-20 0-11.042968 8.953126-20 20-20 11.042969 0 20 8.957032 20 20 0 11.046875-8.957031 20-20 20zm0 0"/><path d="m277.078125 282.933594c-3.90625-3.898438-10.238281-3.898438-14.140625 0-7.199219 7.808594-17.328125 12.253906-27.945312 12.253906-10.621094 0-20.75-4.445312-27.949219-12.253906-3.929688-3.78125-10.164063-3.714844-14.019531.152344-3.847657 3.867187-3.886719 10.101562-.085938 14.019531 11.546875 11.445312 27.007812 18.082031 43.257812 18.570312 15.59375-.328125 30.375-7.042969 40.882813-18.570312 1.878906-1.875 2.9375-4.425781 2.9375-7.085938 0-2.65625-1.058594-5.210937-2.9375-7.085937zm0 0"/><path d="m407.078125 282.933594c-3.90625-3.898438-10.238281-3.898438-14.140625 0-7.199219 7.808594-17.328125 12.253906-27.945312 12.253906-10.621094 0-20.75-4.445312-27.949219-12.253906-3.929688-3.78125-10.164063-3.714844-14.019531.152344-3.847657 3.867187-3.886719 10.101562-.085938 14.019531 11.546875 11.445312 27.007812 18.082031 43.257812 18.570312 15.59375-.328125 30.375-7.042969 40.882813-18.570312 1.878906-1.875 2.9375-4.425781 2.9375-7.085938 0-2.65625-1.058594-5.210937-2.9375-7.085937zm0 0"/><path d="m332.9375 372.933594c-31.753906 31.738281-62.441406 3.359375-65.878906 0-3.929688-3.78125-10.171875-3.71875-14.019532.144531-3.851562 3.859375-3.902343 10.101563-.101562 14.015625 12.914062 12.8125 30.214844 20.246094 48.398438 20.792969 17.449218-.375 33.984374-7.890625 45.742187-20.792969 3.789063-3.925781 3.734375-10.160156-.121094-14.015625-3.859375-3.859375-10.097656-3.914063-14.019531-.125zm0 0"/></svg>
