<svg height="640pt" viewBox="-20 -20 640 640.00308" width="640pt" xmlns="http://www.w3.org/2000/svg" fill="#5052b5"><path d="m10 120.003906h60c5.523438 0 10-4.476562 10-10 0-5.519531-4.476562-10-10-10h-60c-5.519531 0-10 4.480469-10 10 0 5.523438 4.480469 10 10 10zm0 0"/><path d="m10 160.003906h60c5.523438 0 10-4.476562 10-10 0-5.519531-4.476562-10-10-10h-60c-5.519531 0-10 4.480469-10 10 0 5.523438 4.480469 10 10 10zm0 0"/><path d="m10 200.003906h60c5.523438 0 10-4.476562 10-10 0-5.519531-4.476562-10-10-10h-60c-5.519531 0-10 4.480469-10 10 0 5.523438 4.480469 10 10 10zm0 0"/><path d="m599.996094 150.003906c.089844-58.3125-33.675782-111.375-86.53125-135.992187-52.855469-24.625-115.199219-16.328125-159.785156 21.253906l-.128907-.152344c-.300781.257813-.558593.550781-.859375.8125l-182.25 13.996094-58.789062-9.796875c-2.902344-.484375-5.875.332031-8.117188 2.234375-2.246094 1.90625-3.539062 4.703125-3.535156 7.648437v199.996094c0 5.523438 4.476562 10 10 10 .558594 0 1.109375-.042968 1.652344-.140625l58.789062-9.800781 182.238282 14c.257812.230469.492187.492188.761718.714844l.117188-.144532c9.726562 8.199219 20.453125 15.132813 31.925781 20.628907l-15.484375 224.046875v20.695312c0 16.566406 13.433594 30 30 30h10v30c0 5.523438 4.476562 10 10 10h60c5.519531 0 10-4.476562 10-10v-30h10c16.570312 0 30-13.433594 30-30v-20c0-.121094-.070312-.230468-.070312-.351562s0-.21875 0-.34375l-15.457032-224.09375c52.160156-24.847656 85.421875-77.429688 85.523438-135.210938zm-479.996094-88.191406 40 6.660156v163.0625l-40 6.660156zm60 7.453125 152-11.691406c-42.605469 54.253906-42.605469 130.605469 0 184.859375l-152-11.691406zm290 510.738281h-40v-20h40zm40-50c0 5.523438-4.480469 10-10 10h-100c-5.523438 0-10-4.476562-10-10v-10h120zm-.710938-30h-118.578124l2.070312-30h77.21875c5.519531 0 10-4.476562 10-10 0-5.523437-4.480469-10-10-10h-75.839844l1.382813-20h24.457031c5.519531 0 10-4.476562 10-10 0-5.523437-4.480469-10-10-10h-23.078125l8.078125-117.109375c29.25 9.414063 60.710938 9.472657 90 .175781zm-59.289062-220c-31.890625-.027344-62.652344-11.804687-86.40625-33.078125-46.679688-41.769531-56.886719-110.910156-24.269531-164.378906 32.625-53.472656 98.769531-76.035156 157.265625-53.640625s92.667968 83.359375 81.242187 144.945312c-11.425781 61.582032-65.195312 106.230469-127.832031 106.152344zm0 0"/><path d="m450 40.007812c-60.753906 0-110 49.246094-110 109.996094 0 60.753906 49.246094 110 110 110 60.75 0 110-49.246094 110-110-.070312-60.71875-49.277344-109.929687-110-109.996094zm0 199.996094c-30.039062-.019531-58.089844-15.023437-74.78125-40h54.78125c5.519531 0 10-4.476562 10-10 0-5.519531-4.480469-10-10-10h-60c-1.515625.019532-3.003906.398438-4.351562 1.089844-2.535157-6.796875-4.234376-13.882812-5.058594-21.089844h99.410156c5.519531 0 10-4.476562 10-10 0-5.519531-4.480469-10-10-10h-99.410156c.78125-6.824218 2.34375-13.535156 4.664062-20h24.746094c5.523438 0 10-4.476562 10-10 0-5.519531-4.476562-10-10-10h-14.78125c16.679688-24.992187 44.738281-39.996094 74.78125-39.996094 30.046875 0 58.105469 15.003907 74.777344 39.996094h-44.777344c-5.523438 0-10 4.480469-10 10 0 5.523438 4.476562 10 10 10h54.75c2.320312 6.464844 3.882812 13.175782 4.664062 20h-39.414062c-5.523438 0-10 4.480469-10 10 0 5.523438 4.476562 10 10 10h39.414062c-.828124 7.207032-2.527343 14.292969-5.066406 21.089844-1.347656-.691406-2.832031-1.070312-4.347656-1.089844h-60c-5.523438 0-10 4.480469-10 10 0 5.523438 4.476562 10 10 10h54.777344c-16.6875 24.976563-44.734375 39.980469-74.777344 40zm0 0"/><path d="m440 100.003906h-10c-5.523438 0-10 4.480469-10 10 0 5.523438 4.476562 10 10 10h10c5.519531 0 10-4.476562 10-10 0-5.519531-4.480469-10-10-10zm0 0"/></svg>
