<svg height="480pt" viewBox="0 0 480 480.32187" width="480pt" xmlns="http://www.w3.org/2000/svg" fill="#5052b5"><path d="m397.761719 346.257812-21.839844-21.808593c-5.292969-25.167969-7.894531-50.828125-7.761719-76.546875l-.335937-27.855469c.214843-4.046875.335937-8.046875.335937-12.046875 0-5.488281-.246094-10.785156-.671875-15.953125-.527343-16.449219-4.378906-32.621094-11.328125-47.542969-.496094-1.121094-1.054687-2.175781-1.597656-3.273437-.425781-.847657-.859375-1.695313-1.3125-2.550781-15.898438-30.839844-44.21875-50.121094-83.417969-56.375-.367187-.058594-.71875-.136719-1.085937-.191407-3.800782-.585937-7.730469-1.007812-11.730469-1.34375-.796875-.074219-1.527344-.183593-2.3125-.25-4.734375-.328125-9.566406-.519531-14.542969-.519531-68.160156 0-100 25.375-114.910156 62.265625-7.039062 15.484375-11.234375 32.109375-12.394531 49.078125v.242188c-.414063 5.308593-.695313 10.757812-.695313 16.414062 0 3.726562.226563 7.511719.410156 11.296875-.410156 12.320313-.410156 24.863281-.410156 37.367187.074219.921876 7.257813 92.726563-29.6875 129.679688-1.671875 1.671875-2.515625 4-2.308594 6.355469.207032 2.355469 1.445313 4.496093 3.382813 5.851562 1.023437.722657 74.277344 50.960938 166.398437 50.960938 41.148438.210937 81.609376-10.527344 117.238282-31.113281l51.785156 51.867187c5.894531 6.167969 13.976562 9.777344 22.503906 10.054687 6.121094.078126 12.011719-2.316406 16.34375-6.640624.261719-.246094.5-.511719.710938-.800782l14.480468-19.023437c4.726563-4.78125 7.289063-11.285157 7.085938-18.003907-.199219-6.71875-3.140625-13.0625-8.140625-17.554687zm-29.601563-6.945312 12.6875 12.6875-28.6875 28.6875-12.6875-12.6875zm-58.34375-40.96875-21.214844-21.214844c4.558594-4.992187 9.78125-9.332031 15.519532-12.90625 10.992187 4 31.734375 37.832032 46.480468 70.015625l-16.097656 16.105469c-30.710937-14.824219-64.136718-33.183594-70.285156-40.070312 3.085938-7.929688 7.707031-15.167969 13.597656-21.304688l20.6875 20.6875c3.140625 3.03125 8.128906 2.988281 11.214844-.097656 3.085938-3.085938 3.128906-8.074219.097656-11.214844zm44.464844-8.3125c.71875 7.019531 1.632812 13.910156 2.734375 20.671875-1.878906-3.703125-3.894531-7.566406-6.0625-11.519531 1.152344-3.023438 2.28125-6.0625 3.328125-9.152344zm-217.449219-133.941406c.90625-2.355469 1.785157-4.738282 2.816407-6.921875.136718-.296875.304687-.566407.449218-.871094 8.101563-17.097656 21.703125-30.976563 38.632813-39.425781.421875-.214844.796875-.445313 1.261719-.65625 2.183593-1.070313 4.410156-2.023438 6.648437-2.925782.71875-.289062 1.433594-.59375 2.160156-.863281 2.0625-.800781 4.160157-1.488281 6.265625-2.144531.957032-.296875 1.917969-.585938 2.886719-.855469 1.953125-.554687 3.902344-1.066406 5.871094-1.523437 1.199219-.277344 2.402343-.527344 3.609375-.796875 1.785156-.371094 3.574218-.722657 5.375-1.007813 1.457031-.242187 2.921875-.425781 4.382812-.617187 1.464844-.191407 3.152344-.433594 4.730469-.59375 1.832031-.183594 3.65625-.3125 5.480469-.429688 1.214844-.089843 2.445312-.199219 3.664062-.265625 3.054688-.113281 6.09375-.191406 9.09375-.191406 4 0 7.847656.167969 11.640625.40625l1.121094.082031c.734375.046875 1.464844.113281 2.199219.167969 3.136718.265625 6.214844.589844 9.214844 1.023438l2.121093.296874c3.710938.582032 7.328125 1.28125 10.808594 2.128907l.160156.039062c17.390625 3.859375 33.363281 12.496094 46.121094 24.933594 7.398437 7.5 13.433594 16.234375 17.828125 25.808594.976562 2.183593 1.90625 4.441406 2.761719 6.785156.320312.871094.65625 1.703125.953125 2.601563.910156 2.695312 1.695312 5.597656 2.398437 8.480468.34375 1.335938.6875 2.660156.992188 4.046875.601562 2.742188 1.113281 5.597657 1.601562 8.542969.136719.863281.238281 1.769531.359375 2.65625h-25.335937l-13.746094-27.574219c-1.503906-2.523437-4.222656-4.070312-7.160156-4.070312-2.933594 0-5.65625 1.546875-7.160157 4.070312l-13.820312 27.574219h-20.800781l-14.496094-57.9375c-.894531-3.558594-4.089844-6.054688-7.761719-6.054688-3.667968 0-6.867187 2.496094-7.757812 6.054688l-14.488282 57.9375h-20.714843c-6.910157-15-13.375-34.320312-13.453125-34.527344-1.023438-3.070312-3.796875-5.21875-7.023438-5.449218-3.226562-.230469-6.273437 1.507812-7.722656 4.402343-5.503906 11.578125-10.359375 23.453125-14.542969 35.574219h-23.511719c1.128907-9.460938 3.097657-18.800781 5.886719-27.910156zm-7.457031 43.910156h30.785156c3.441406-.003906 6.496094-2.207031 7.585938-5.472656.054687-.152344 3.335937-9.960938 7.71875-21.007813 2.785156 7.199219 6.144531 15.265625 9.535156 22.054688 1.355469 2.714843 4.128906 4.425781 7.160156 4.425781h32c3.671875 0 6.871094-2.5 7.761719-6.0625l8.238281-32.953125 8.242188 32.953125c.886718 3.5625 4.085937 6.0625 7.757812 6.0625h32c3.046875.015625 5.839844-1.699219 7.199219-4.425781l8.800781-17.6875 8.800782 17.6875c1.363281 2.726562 4.152343 4.441406 7.199218 4.425781h31.425782l.230468 19.625c-1.234375 20.9375-5.113281 41.636719-11.550781 61.597656-10.863281-16.796875-23.304687-31.269531-34.832031-33.125-3.839844-.609375-9.257813.476563-22.570313 12.621094-1.46875 1.34375-35.957031 33.015625-34.6875 51.808594.265625 3.871094.882813 12.207031 53.761719 39.503906-14 15.777344-34.90625 31.96875-61.777344 31.96875-51.085937 0-107.855468-70.398438-111.632812-165.992188.175781-6.152343.433594-12.167968.847656-18.007812zm-29.046875 190.230469c19.914063-25.734375 26.234375-64.839844 27.960937-94.230469 4.917969 13.742188 11.109376 26.992188 18.488282 39.585938 24.769531 41.535156 57.925781 64.414062 93.382812 64.414062 27.839844 0 54.144532-14.113281 76.402344-40.59375l5.957031 2.921875c-3.121093 3.125-3.121093 8.1875 0 11.3125l24 24 8.945313 8.960937c-110.863282 60.972657-225.097656 1.628907-255.136719-16.371093zm360.96875 52.679687c-.257813.25-.496094.515625-.710937.800782l-14.402344 18.90625c-3.238282 2.808593-9.957032 2.167968-15.941406-3.738282l-66.769532-66.878906 28.800782-28.800781 68.472656 66.402343c2.03125 1.570313 3.269531 3.957032 3.375 6.527344.105468 2.566406-.925782 5.050782-2.824219 6.78125zm0 0"/><path d="m372.160156 8c0-4.417969-3.582031-8-8-8-4.417968 0-8 3.582031-8 8-.019531 19.875-16.125 35.976562-36 36-4.417968 0-8 3.582031-8 8s3.582032 8 8 8c19.875.023438 35.980469 16.125 36 36 0 4.417969 3.582032 8 8 8 4.417969 0 8-3.582031 8-8 .023438-19.875 16.128906-35.976562 36-36 4.417969 0 8-3.582031 8-8s-3.582031-8-8-8c-19.871094-.023438-35.976562-16.125-36-36zm-8 60.414062c-4.167968-6.632812-9.78125-12.242187-16.414062-16.414062 6.632812-4.171875 12.246094-9.78125 16.414062-16.414062 4.171875 6.632812 9.78125 12.242187 16.417969 16.414062-6.636719 4.171875-12.246094 9.78125-16.417969 16.414062zm0 0"/><path d="m88.160156 284c0-4.417969-3.582031-8-8-8-15.464844 0-28-12.535156-28-28 0-4.417969-3.582031-8-8-8-4.417968 0-8 3.582031-8 8 0 15.464844-12.535156 28-28 28-4.417968 0-8 3.582031-8 8s3.582032 8 8 8c15.464844 0 28 12.535156 28 28 0 4.417969 3.582032 8 8 8 4.417969 0 8-3.582031 8-8 0-15.464844 12.535156-28 28-28 4.417969 0 8-3.582031 8-8zm-44 10.785156c-2.941406-4.191406-6.589844-7.839844-10.785156-10.785156 4.195312-2.945312 7.84375-6.59375 10.785156-10.785156 2.945313 4.191406 6.59375 7.839844 10.785156 10.785156-4.191406 2.945312-7.839843 6.59375-10.785156 10.785156zm0 0"/></svg>
