<svg height="480pt" viewBox="0 -27 480 480" width="480pt" xmlns="http://www.w3.org/2000/svg" fill="#5052b5"><path d="m84.542969 153.929688-42.199219 42.199218c-2.078125 2.007813-2.914062 4.984375-2.179688 7.78125.730469 2.796875 2.914063 4.980469 5.710938 5.714844 2.796875.730469 5.773438-.105469 7.78125-2.183594l43.632812-43.632812c3.65625 2.671875 7.496094 5.328125 11.480469 7.945312l-35.273437 49.382813c-1.792969 2.320312-2.179688 5.433593-1 8.117187 1.179687 2.683594 3.734375 4.507813 6.652344 4.753906 2.921874.246094 5.742187-1.125 7.355468-3.574218l35.894532-50.25c3.933593 2.269531 7.988281 4.457031 12.167968 6.570312l-29.734375 59.472656c-1.976562 3.953126-.371093 8.761719 3.582031 10.734376 3.957032 1.976562 8.761719.371093 10.738282-3.582032l29.917968-59.839844c6.007813 2.574219 12.238282 4.933594 18.699219 7.070313l-31.089843 69.945313c-1.792969 4.035156.027343 8.765624 4.0625 10.558593 1.027343.453125 2.136718.683594 3.257812.671875 3.164062.003906 6.035156-1.859375 7.320312-4.75l32-71.929687c8.074219 2.035156 16.261719 3.597656 24.519532 4.679687l-15.679688 78.398438c-.882812 4.332031 1.910156 8.558594 6.238282 9.441406.527343.109375 1.0625.164062 1.601562.160156 3.800781-.003906 7.070312-2.675781 7.832031-6.398437l16-80c.003907-.0625.003907-.125 0-.183594 3.648438.191406 7.289063.398437 10.9375.398437 1.773438 0 3.558594-.121093 5.335938-.167968l7.894531 87.070312c.375 4.136719 3.847656 7.296875 8 7.28125h.734375c2.125-.1875 4.085937-1.210937 5.449219-2.847656 1.363281-1.636719 2.015625-3.75 1.816406-5.871094l-7.878906-86.679687c8.402344-.871094 16.746094-2.230469 24.992187-4.074219l23.335938 70c1.394531 4.199219 5.929687 6.46875 10.125 5.074219 4.199219-1.398438 6.46875-5.933594 5.074219-10.128907l-22.984376-68.953124c8.84375-2.636719 17.53125-5.765626 26.023438-9.375l30.214844 60.433593c1.976562 3.953125 6.785156 5.558594 10.738281 3.582031 3.953125-1.976562 5.558594-6.78125 3.582031-10.734374l-30.039062-59.945313c5.992187-2.960937 12-6.273437 17.945312-9.761719l30.625 38.28125c2.757813 3.449219 7.796875 4.007813 11.246094 1.25 3.449219-2.761718 4.007812-7.800781 1.246094-11.25l-29.398438-36.742187c6.703125-4.371094 13.398438-9 20.082032-14.015625l21.414062 21.414062c3.140625 3.03125 8.128906 2.988282 11.214844-.097656 3.085937-3.085938 3.128906-8.074219.097656-11.214844l-20.039062-20c12.558593-10.265625 24.585937-21.160156 36.039062-32.648437 3.121094-3.121094 3.121094-8.1875 0-11.3125-71.382812-71.429688-144.710938-104.933594-217.921875-99.621094-107.917969 7.832031-175.328125 96.679687-178.132813 100.4375-2.136718 2.84375-2.136718 6.757813 0 9.601563 12.640626 16.015624 27.046876 30.554687 42.941407 43.34375zm136.496093-137.433594c66.464844-4.78125 133.503907 25.289062 199.5625 89.289062-66.050781 64-133.089843 94.074219-199.5625 89.289063-86.695312-6.214844-147.261718-70.984375-162.742187-89.289063 15.480469-18.304687 76.046875-83.070312 162.742187-89.289062zm0 0"/><path d="m240 177.785156c4.417969 0 8-3.582031 8-8 0-4.417968-3.582031-8-8-8-75.574219 0-129.816406-53.128906-130.351562-53.664062-3.140626-3.027344-8.132813-2.980469-11.214844.105468-3.082032 3.089844-3.125 8.078126-.089844 11.214844 2.382812 2.382813 59.257812 58.34375 141.65625 58.34375zm0 0"/><path d="m8 377.785156h8v8c0 4.417969 3.582031 8 8 8s8-3.582031 8-8v-8h16v24c0 4.417969 3.582031 8 8 8s8-3.582031 8-8v-24h16v40c0 4.417969 3.582031 8 8 8s8-3.582031 8-8v-40h16v24c0 4.417969 3.582031 8 8 8s8-3.582031 8-8v-24h16v8c0 4.417969 3.582031 8 8 8s8-3.582031 8-8v-8h96v8c0 4.417969 3.582031 8 8 8h24c0 4.417969 3.582031 8 8 8h152c17.671875 0 32-14.328125 32-32s-14.328125-32-32-32h-152c-4.417969 0-8 3.582032-8 8h-24c-4.417969 0-8 3.582032-8 8v8h-96v-8c0-4.417968-3.582031-8-8-8s-8 3.582032-8 8v8h-16v-24c0-4.417968-3.582031-8-8-8s-8 3.582032-8 8v24h-16v-40c0-4.417968-3.582031-8-8-8s-8 3.582032-8 8v40h-16v-24c0-4.417968-3.582031-8-8-8s-8 3.582032-8 8v24h-16v-8c0-4.417968-3.582031-8-8-8s-8 3.582032-8 8v8h-8c-4.417969 0-8 3.582032-8 8 0 4.417969 3.582031 8 8 8zm328-24h112c8.835938 0 16 7.164063 16 16 0 8.835938-7.164062 16-16 16h-112zm-32 0h16v32h-16zm-32 8h16v16h-16zm0 0"/></svg>
