<svg height="640pt" viewBox="-20 -20 640 640" width="640pt" xmlns="http://www.w3.org/2000/svg" fill="#5052b5"><path d="m300 339.910156c12.132812.003906 23.070312-7.304687 27.71875-18.515625 4.644531-11.207031 2.082031-24.109375-6.5-32.691406-11.875-11.320313-30.546875-11.320313-42.421875 0-8.570313 8.574219-11.140625 21.476563-6.496094 32.683594 4.636719 11.210937 15.570313 18.519531 27.699219 18.523437zm-7.070312-37.070312c3.90625-3.902344 10.234374-3.902344 14.140624 0 3.902344 3.90625 3.902344 10.238281 0 14.140625-3.953124 3.785156-10.1875 3.785156-14.140624 0-3.902344-3.902344-3.902344-10.234375 0-14.140625zm0 0"/><path d="m420 199.910156c2.652344 0 5.195312-1.054687 7.070312-2.929687l90-90c3.789063-3.921875 3.734376-10.160157-.121093-14.019531-3.859375-3.855469-10.09375-3.910157-14.019531-.121094l-90 90c-2.855469 2.863281-3.714844 7.164062-2.167969 10.898437s5.195312 6.171875 9.238281 6.171875zm0 0"/><path d="m370 249.910156c2.652344 0 5.195312-1.054687 7.070312-2.929687l20-20c3.789063-3.921875 3.734376-10.160157-.121093-14.019531-3.859375-3.855469-10.09375-3.910157-14.019531-.121094l-20 20c-2.855469 2.863281-3.714844 7.164062-2.167969 10.898437s5.195312 6.171875 9.238281 6.171875zm0 0"/><path d="m110 479.910156c-22.089844 0-40 17.910156-40 40 0 22.09375 17.910156 40 40 40s40-17.90625 40-40c0-22.089844-17.910156-40-40-40zm0 60c-11.046875 0-20-8.949218-20-20 0-11.042968 8.953125-20 20-20s20 8.957032 20 20c0 11.050782-8.953125 20-20 20zm0 0"/><path d="m490.371094 559.910156c22.089844 0 40-17.90625 40-40 0-22.089844-17.910156-40-40-40-22.09375 0-40 17.910156-40 40 0 22.09375 17.90625 40 40 40zm0-60c11.042968 0 20 8.957032 20 20 0 11.050782-8.957032 20-20 20-11.042969 0-20-8.949218-20-20 0-11.042968 8.957031-20 20-20zm0 0"/><path d="m590 349.910156c-22.089844 0-40-17.90625-40-40 0-5.523437-4.476562-10-10-10s-10 4.476563-10 10c0 22.09375-17.910156 40-40 40-5.523438 0-10 4.476563-10 10 0 5.523438 4.476562 10 10 10 22.089844 0 40 17.910156 40 40 0 5.523438 4.476562 10 10 10s10-4.476562 10-10c0-22.089844 17.910156-40 40-40 5.523438 0 10-4.476562 10-10 0-5.523437-4.476562-10-10-10zm-50 26.90625c-4.453125-6.707031-10.199219-12.453125-16.898438-16.90625 6.699219-4.449218 12.445313-10.195312 16.898438-16.898437 4.453125 6.703125 10.199219 12.449219 16.898438 16.898437-6.699219 4.453125-12.445313 10.199219-16.898438 16.90625zm0 0"/><path d="m10 249.910156c22.089844 0 40 17.910156 40 40 0 5.523438 4.476562 10 10 10s10-4.476562 10-10c0-22.089844 17.910156-40 40-40 5.523438 0 10-4.476562 10-10 0-5.523437-4.476562-10-10-10-22.089844 0-40-17.90625-40-40 0-5.523437-4.476562-10-10-10s-10 4.476563-10 10c0 22.09375-17.910156 40-40 40-5.523438 0-10 4.476563-10 10 0 5.523438 4.476562 10 10 10zm50-26.898437c4.453125 6.703125 10.199219 12.449219 16.898438 16.898437-6.699219 4.453125-12.445313 10.199219-16.898438 16.90625-4.453125-6.707031-10.199219-12.453125-16.898438-16.90625 6.699219-4.449218 12.445313-10.195312 16.898438-16.898437zm0 0"/><path d="m242 343.792969-102 101.980469c-9.523438-3.890626-19.710938-5.878907-30-5.863282-44.183594 0-80 35.820313-80 80 0 44.183594 35.816406 80 80 80s80-35.816406 80-80c-.007812-4.78125-.460938-9.554687-1.335938-14.257812l111.527344-109 111.519532 109c-.882813 4.703125-1.328126 9.476562-1.339844 14.257812 0 44.183594 35.816406 80 80 80 44.179687 0 80-35.816406 80-80 0-44.179687-35.820313-80-80-80-10.289063-.019531-20.480469 1.972656-30 5.863282l-101.878906-101.859376 189.316406-217.753906c44.0625-55.078125.949218-121.136718.511718-121.796875-1.625-2.4375-4.238281-4.039062-7.148437-4.378906-2.921875-.335937-5.839844.609375-8.003906 2.597656l-232.890625 216.332031-232.917969-216.332031c-2.160156-1.988281-5.078125-2.933593-8-2.597656-2.910156.339844-5.523437 1.941406-7.148437 4.378906-.445313.660157-43.539063 66.71875.777343 122.109375zm-71.292969 151.449219c-2.558593 2.503906-3.582031 6.183593-2.691406 9.648437 6.429687 24.847656-3.660156 51.027344-25.09375 65.136719-21.4375 14.113281-49.46875 13.027344-69.753906-2.695313-20.28125-15.722656-28.320313-42.605469-19.996094-66.878906 8.328125-24.277344 31.164063-40.570313 56.828125-40.542969 9.589844-.007812 19.039062 2.300782 27.539062 6.742188 3.871094 2.003906 8.589844 1.269531 11.671876-1.808594l105.886718-105.878906c5.921875 5.578125 12.761719 10.097656 20.222656 13.347656l10.558594 10.328125zm292.136719-28.589844c8.492188-4.441406 17.9375-6.75 27.527344-6.742188 25.863281-.15625 48.960937 16.183594 57.417968 40.628906 8.457032 24.449219.394532 51.5625-20.046874 67.421876-20.4375 15.855468-48.703126 16.929687-70.285157 2.664062-21.578125-14.265625-31.671875-40.695312-25.089843-65.714844.898437-3.460937-.125-7.144531-2.6875-9.648437l-121.273438-118.558594c13.773438-2.113281 26.5625-8.394531 36.652344-18l106.105468 106.101563c3.070313 3.097656 7.796876 3.847656 11.679688 1.847656zm74.535156-440.65625c8.421875 17.910156 20.597656 55.4375-4.917968 87.355468l-199.53125 229.488282c-18.117188 18.261718-47.601563 18.378906-65.859376.265625-18.257812-18.117188-18.375-47.605469-.257812-65.859375zm-474.257812-.085938 222.460937 206.613282-32.652343 30.316406c-11.015626 10.679687-18.070313 24.785156-20 40l-164.570313-189.179688c-25.972656-32.457031-13.75-69.859375-5.238281-87.75zm0 0"/></svg>
