<svg height="640pt" viewBox="-97 -20 640 640" width="640pt" xmlns="http://www.w3.org/2000/svg" fill="#5052b5"><path d="m220.023438 440c0-44.183594-35.820313-80-80-80-44.183594 0-80 35.816406-80 80s35.816406 80 80 80c44.160156-.046875 79.949218-35.839844 80-80zm-140 0c0-33.132812 26.859374-60 60-60 33.132812 0 60 26.867188 60 60s-26.867188 60-60 60c-33.125-.035156-59.972657-26.875-60-60zm0 0"/><path d="m180.023438 440c0-22.089844-17.910157-40-40-40-22.09375 0-40 17.910156-40 40s17.90625 40 40 40c22.089843 0 40-17.910156 40-40zm-60 0c0-11.046875 8.953124-20 20-20 11.042968 0 20 8.953125 20 20s-8.957032 20-20 20c-11.046876 0-20-8.953125-20-20zm0 0"/><path d="m390.023438 440c0-5.523438-4.476563-10-10-10-5.523438 0-10 4.476562-10 10 0 6.582031.230468 13.519531.476562 20.648438 1.109375 32.613281 2.371094 69.570312-20 92.730468-17.316406 17.910156-46.917969 26.621094-90.476562 26.621094-84.339844 0-104.492188-15-109.0625-20.550781 61.726562-5.714844 108.96875-57.457031 109.0625-119.449219 0-3.070312-.230469-6.070312-.460938-9.082031l25.460938-350.386719c1.46875-20.8125-5.765626-41.308594-19.992188-56.578125-14.21875-15.265625-34.144531-23.9414062-55.007812-23.953125-5.523438 0-10 4.476562-10 10v10h-30c-5.523438 0-10 4.476562-10 10v291.8125c-13.226563-2.417969-26.777344-2.417969-40 0v-291.8125c0-5.523438-4.476563-10-10-10h-30v-10c0-5.523438-4.476563-10-10-10-20.871094.0117188-40.800782 8.6875-55.019532 23.960938-14.222656 15.277343-21.460937 35.769531-19.980468 56.589843l25.488281 350.390625c-.230469 3-.460938 5.996094-.460938 9.058594.085938 62.128906 47.535157 113.941406 109.421875 119.46875.59375 3.296875 1.816406 6.445312 3.585938 9.28125 12.964844 21.03125 54.523437 31.25 126.964844 31.25 49.265624 0 83.570312-10.699219 104.847656-32.71875 28.28125-29.265625 26.800781-72.53125 25.621094-107.300781-.238282-6.910157-.46875-13.617188-.46875-19.980469zm-170-419.109375c27.644531 5.105469 47.050781 30.164063 45.078124 58.210937l-21.832031 300.058594c-6.257812-10.582031-14.097656-20.140625-23.246093-28.347656zm-40 19.109375h20v296.242188c-6.367188-3.695313-13.0625-6.789063-20-9.242188zm-80 0v287c-6.9375 2.453125-13.636719 5.546875-20 9.242188v-296.242188zm-85.082032 39.121094c-1.984375-28.058594 17.425782-53.125 45.082032-58.230469v329.921875c-9.144532 8.210938-16.988282 17.773438-23.253907 28.347656zm25.082032 360.878906c0-55.230469 44.769531-100 100-100 55.230468 0 100 44.769531 100 100s-44.769532 100-100 100c-55.207032-.058594-99.941407-44.796875-100-100zm0 0"/><path d="m380.023438 410c5.523437 0 10-4.476562 10-10v-10c0-5.523438-4.476563-10-10-10-5.523438 0-10 4.476562-10 10v10c0 5.523438 4.476562 10 10 10zm0 0"/><path d="m430.023438 160c-16.09375-.609375-31.714844 5.515625-43.101563 16.90625-11.386719 11.382812-17.507813 27-16.898437 43.09375v130c0 5.523438 4.476562 10 10 10 5.523437 0 10-4.476562 10-10v-130c0-1.632812.449218-40 40-40 5.523437 0 10-4.476562 10-10s-4.476563-10-10-10zm0 0"/></svg>
